<svg width="153" height="52" viewBox="0 0 153 52" fill="none" xmlns="http://www.w3.org/2000/svg">
<path d="M139.975 0.808759H12.1181C11.652 0.808759 11.1916 0.808759 10.7267 0.811301C10.3376 0.813843 9.95163 0.821227 9.55879 0.827442C8.70537 0.837485 7.85395 0.912565 7.01194 1.05203C6.17111 1.19453 5.35663 1.46319 4.59602 1.84891C3.83635 2.2379 3.14222 2.74335 2.53881 3.34693C1.93222 3.94881 1.42659 4.6445 1.04135 5.40725C0.655047 6.16848 0.387182 6.98421 0.247009 7.82627C0.105503 8.66726 0.0293568 9.51795 0.0192549 10.3707C0.00746046 10.7604 0.00621493 11.1513 0 11.5411V40.9181C0.00621493 41.3127 0.00746046 41.695 0.0192549 42.0898C0.0293599 42.9425 0.105506 43.7931 0.247009 44.6341C0.386795 45.4766 0.654675 46.2928 1.04135 47.0543C1.42642 47.8146 1.93212 48.5075 2.53881 49.106C3.13993 49.7123 3.83451 50.2181 4.59602 50.6041C5.35662 50.9908 6.17102 51.2611 7.01194 51.4058C7.8541 51.5441 8.70543 51.6193 9.55879 51.6305C9.95163 51.6391 10.3376 51.6441 10.7267 51.6441C11.1915 51.6466 11.652 51.6466 12.1181 51.6466H139.975C140.432 51.6466 140.896 51.6466 141.353 51.6441C141.74 51.6441 142.138 51.6391 142.525 51.6305C143.377 51.6199 144.226 51.5447 145.067 51.4058C145.91 51.2601 146.728 50.9899 147.492 50.6041C148.253 50.2178 148.947 49.7121 149.547 49.106C150.152 48.5051 150.659 47.8128 151.049 47.0543C151.433 46.2923 151.698 45.4761 151.836 44.6341C151.978 43.793 152.057 42.9425 152.072 42.0898C152.077 41.695 152.077 41.3127 152.077 40.9181C152.087 40.4563 152.087 39.9971 152.087 39.5279V12.9287C152.087 12.4632 152.087 12.0015 152.077 11.5411C152.077 11.1513 152.077 10.7604 152.072 10.3707C152.057 9.51783 151.978 8.66732 151.836 7.82622C151.698 6.98465 151.433 6.16898 151.049 5.4072C150.265 3.87835 149.021 2.63387 147.492 1.8488C146.728 1.46402 145.91 1.19543 145.067 1.05192C144.227 0.911836 143.377 0.83673 142.525 0.827264C142.138 0.821062 141.74 0.813614 141.353 0.811136C140.896 0.808594 140.432 0.808594 139.975 0.808594V0.808759Z" fill="#A6A6A6"/>
<path d="M10.7328 50.5356C10.3455 50.5356 9.96765 50.5306 9.58345 50.522C8.78756 50.5116 7.99353 50.4423 7.20787 50.3147C6.47529 50.1885 5.76561 49.9538 5.10225 49.6184C4.44497 49.2857 3.84547 48.8494 3.32673 48.3263C2.80049 47.8094 2.36236 47.2098 2.02972 46.5514C1.69341 45.8888 1.46067 45.1784 1.33959 44.4452C1.20884 43.6574 1.1381 42.8608 1.12798 42.0622C1.11992 41.7942 1.10938 40.9017 1.10938 40.9017V11.5421C1.10938 11.5421 1.12061 10.6634 1.12805 10.4052C1.13774 9.6079 1.20807 8.81251 1.33843 8.02589C1.45972 7.29067 1.69265 6.57831 2.02913 5.91345C2.36055 5.2555 2.79625 4.6555 3.31932 4.13673C3.84181 3.61302 4.44322 3.17453 5.10162 2.83722C5.76346 2.50282 6.4718 2.26977 7.20291 2.1459C7.99114 2.01699 8.78793 1.94729 9.58658 1.93739L10.7334 1.92188H141.347L142.507 1.93802C143.299 1.94742 144.088 2.0165 144.869 2.14466C145.608 2.27008 146.323 2.50475 146.993 2.84095C148.312 3.52071 149.385 4.59616 150.062 5.91655C150.393 6.57682 150.623 7.28337 150.742 8.01224C150.874 8.80531 150.948 9.60696 150.963 10.4108C150.967 10.7707 150.967 11.1573 150.967 11.5421C150.977 12.0187 150.977 12.4724 150.977 12.9297V39.5289C150.977 39.9907 150.977 40.4412 150.967 40.8955C150.967 41.3088 150.967 41.6874 150.962 42.0771C150.947 42.8665 150.875 43.6539 150.745 44.4328C150.626 45.1713 150.395 45.8871 150.058 46.5552C149.723 47.2065 149.288 47.8009 148.768 48.3164C148.249 48.8423 147.648 49.2811 146.989 49.6159C146.322 49.954 145.607 50.1896 144.869 50.3147C144.084 50.443 143.29 50.5123 142.494 50.522C142.121 50.5306 141.731 50.5356 141.353 50.5356L139.975 50.5381L10.7328 50.5356Z" fill="black"/>
<path d="M31.4795 26.6105C31.4931 25.5497 31.7749 24.5096 32.2986 23.5869C32.8222 22.6643 33.5708 21.8891 34.4745 21.3334C33.9004 20.5135 33.143 19.8387 32.2624 19.3626C31.3819 18.8866 30.4025 18.6225 29.402 18.5912C27.2677 18.3671 25.1987 19.8682 24.1111 19.8682C23.0025 19.8682 21.3281 18.6134 19.5249 18.6505C18.3586 18.6882 17.2219 19.0273 16.2257 19.6349C15.2294 20.2425 14.4075 21.0978 13.8401 22.1175C11.3821 26.3731 13.2155 32.6275 15.5701 36.0675C16.7481 37.7519 18.1249 39.6335 19.9264 39.5668C21.6893 39.4937 22.3477 38.4427 24.4757 38.4427C26.5839 38.4427 27.2016 39.5668 29.0396 39.5244C30.9313 39.4937 32.1231 37.8324 33.2598 36.132C34.1062 34.9318 34.7576 33.6053 35.1897 32.2016C34.0907 31.7368 33.1528 30.9587 32.493 29.9645C31.8332 28.9702 31.4807 27.8038 31.4795 26.6105Z" fill="white"/>
<path d="M28.0071 16.329C29.0385 15.0908 29.5466 13.4994 29.4236 11.8926C27.8478 12.0581 26.3922 12.8112 25.3469 14.0019C24.8358 14.5835 24.4443 15.2602 24.1949 15.9933C23.9455 16.7263 23.843 17.5013 23.8933 18.274C24.6815 18.2821 25.4612 18.1113 26.1738 17.7744C26.8863 17.4375 27.5132 16.9433 28.0071 16.329Z" fill="white"/>
<path d="M53.7617 35.3019H47.7458L46.3011 39.5678H43.753L49.4511 23.7852H52.0985L57.7967 39.5678H55.2051L53.7617 35.3019ZM48.3688 33.3334H53.1374L50.7867 26.4102H50.7209L48.3688 33.3334Z" fill="white"/>
<path d="M70.1009 33.814C70.1009 37.3898 68.1871 39.6872 65.2989 39.6872C64.5673 39.7255 63.8396 39.5569 63.1993 39.2009C62.559 38.8449 62.032 38.3157 61.6784 37.674H61.6238V43.3734H59.2618V28.06H61.5481V29.9739H61.5915C61.9613 29.3353 62.4973 28.8089 63.1425 28.4507C63.7877 28.0924 64.5179 27.9158 65.2554 27.9396C68.1758 27.9396 70.1009 30.2482 70.1009 33.814ZM67.6732 33.814C67.6732 31.4844 66.4693 29.9528 64.6324 29.9528C62.8277 29.9528 61.6139 31.5167 61.6139 33.814C61.6139 36.1325 62.8277 37.6852 64.6324 37.6852C66.4693 37.6852 67.6732 36.1648 67.6732 33.814Z" fill="white"/>
<path d="M82.7671 33.814C82.7671 37.3898 80.8532 39.6872 77.965 39.6872C77.2334 39.7255 76.5058 39.5569 75.8655 39.2009C75.2252 38.8448 74.6981 38.3157 74.3446 37.674H74.2899V43.3734H71.928V28.06H74.2142V29.9739H74.2576C74.6274 29.3353 75.1634 28.8089 75.8086 28.4506C76.4538 28.0924 77.184 27.9158 77.9215 27.9396C80.842 27.9396 82.7671 30.2482 82.7671 33.814ZM80.3393 33.814C80.3393 31.4844 79.1354 29.9528 77.2985 29.9528C75.4939 29.9528 74.28 31.5166 74.28 33.814C74.28 36.1325 75.4939 37.6852 77.2985 37.6852C79.1354 37.6852 80.3394 36.1648 80.3394 33.814H80.3393Z" fill="white"/>
<path d="M91.1377 35.1698C91.3127 36.7349 92.8331 37.7626 94.9108 37.7626C96.9016 37.7626 98.3339 36.7349 98.3339 35.3237C98.3339 34.0986 97.4701 33.3651 95.4246 32.8625L93.3792 32.3697C90.4811 31.6697 89.1357 30.3144 89.1357 28.115C89.1357 25.3919 91.5088 23.5215 94.8785 23.5215C98.2135 23.5215 100.5 25.3919 100.577 28.115H98.1924C98.0497 26.54 96.7477 25.5893 94.845 25.5893C92.9423 25.5893 91.6403 26.5512 91.6403 27.9512C91.6403 29.067 92.4719 29.7236 94.5061 30.2262L96.245 30.6531C99.4832 31.4189 100.829 32.7197 100.829 35.0282C100.829 37.9809 98.4766 39.8303 94.7357 39.8303C91.2357 39.8303 88.8725 38.0244 88.7198 35.1697L91.1377 35.1698Z" fill="white"/>
<path d="M105.925 25.3359V28.059H108.113V29.9295H105.925V36.273C105.925 37.2585 106.363 37.7177 107.325 37.7177C107.585 37.7132 107.844 37.695 108.102 37.6631V39.5223C107.67 39.6032 107.23 39.6398 106.79 39.6316C104.461 39.6316 103.552 38.7566 103.552 36.5249V29.9295H101.879V28.059H103.552V25.3359H105.925Z" fill="white"/>
<path d="M109.383 33.8135C109.383 30.193 111.515 27.918 114.84 27.918C118.177 27.918 120.299 30.193 120.299 33.8135C120.299 37.4439 118.188 39.709 114.84 39.709C111.494 39.709 109.383 37.4439 109.383 33.8135ZM117.892 33.8135C117.892 31.3299 116.754 29.8641 114.84 29.8641C112.926 29.8641 111.79 31.3411 111.79 33.8135C111.79 36.307 112.926 37.7616 114.84 37.7616C116.754 37.7616 117.892 36.307 117.892 33.8135H117.892Z" fill="white"/>
<path d="M122.244 28.0599H124.497V30.0184H124.552C124.704 29.4068 125.062 28.8662 125.566 28.4876C126.07 28.109 126.689 27.9154 127.319 27.9395C127.592 27.9385 127.863 27.9681 128.129 28.0276V30.2369C127.785 30.1319 127.427 30.0837 127.067 30.0942C126.724 30.0802 126.382 30.1407 126.065 30.2715C125.747 30.4023 125.462 30.6002 125.228 30.8517C124.994 31.1032 124.817 31.4023 124.71 31.7286C124.603 32.0548 124.567 32.4003 124.606 32.7415V39.5667H122.244L122.244 28.0599Z" fill="white"/>
<path d="M139.019 36.1885C138.701 38.2774 136.667 39.7109 134.064 39.7109C130.716 39.7109 128.639 37.4682 128.639 33.87C128.639 30.2608 130.728 27.9199 133.965 27.9199C137.148 27.9199 139.15 30.1068 139.15 33.5957V34.405H131.023V34.5477C130.986 34.9712 131.039 35.3978 131.179 35.7992C131.319 36.2006 131.542 36.5677 131.835 36.8759C132.128 37.1842 132.483 37.4266 132.877 37.5872C133.27 37.7477 133.694 37.8226 134.119 37.807C134.677 37.8593 135.237 37.73 135.716 37.4384C136.194 37.1468 136.566 36.7084 136.776 36.1885L139.019 36.1885ZM131.034 32.7542H136.787C136.808 32.3735 136.75 31.9924 136.617 31.635C136.484 31.2776 136.279 30.9516 136.014 30.6773C135.749 30.4031 135.43 30.1866 135.077 30.0415C134.725 29.8963 134.346 29.8256 133.965 29.8338C133.58 29.8315 133.199 29.9054 132.843 30.0512C132.487 30.1971 132.163 30.4119 131.891 30.6834C131.618 30.955 131.403 31.2777 131.255 31.6332C131.108 31.9886 131.033 32.3696 131.034 32.7542V32.7542Z" fill="white"/>
<path d="M48.0772 11.9051C48.5724 11.8696 49.0693 11.9444 49.5321 12.1241C49.9948 12.3039 50.4119 12.5841 50.7533 12.9446C51.0946 13.305 51.3517 13.7368 51.506 14.2086C51.6603 14.6805 51.708 15.1807 51.6455 15.6732C51.6455 18.096 50.3361 19.4886 48.0772 19.4886H45.338V11.9051H48.0772ZM46.5158 18.4162H47.9456C48.2995 18.4373 48.6536 18.3793 48.9822 18.2463C49.3108 18.1134 49.6056 17.9088 49.8451 17.6475C50.0847 17.3863 50.263 17.0749 50.367 16.736C50.4711 16.3972 50.4983 16.0394 50.4466 15.6887C50.4945 15.3394 50.4646 14.9838 50.3589 14.6475C50.2533 14.3111 50.0746 14.0022 49.8355 13.743C49.5965 13.4839 49.3031 13.2808 48.9764 13.1483C48.6497 13.0158 48.2977 12.9572 47.9456 12.9768H46.5158V18.4162Z" fill="white"/>
<path d="M52.9767 16.6237C52.9407 16.2476 52.9838 15.8681 53.103 15.5097C53.2223 15.1512 53.4152 14.8215 53.6693 14.542C53.9234 14.2624 54.2332 14.039 54.5787 13.8861C54.9242 13.7333 55.2978 13.6543 55.6756 13.6543C56.0534 13.6543 56.4271 13.7333 56.7726 13.8861C57.1181 14.039 57.4278 14.2624 57.682 14.542C57.9361 14.8215 58.129 15.1512 58.2482 15.5097C58.3675 15.8681 58.4105 16.2476 58.3745 16.6237C58.4112 17.0002 58.3687 17.3802 58.2497 17.7393C58.1308 18.0983 57.938 18.4285 57.6838 18.7087C57.4297 18.9888 57.1197 19.2127 56.7738 19.3659C56.428 19.5191 56.0539 19.5982 55.6756 19.5982C55.2974 19.5982 54.9233 19.5191 54.5774 19.3659C54.2316 19.2127 53.9216 18.9888 53.6674 18.7087C53.4132 18.4285 53.2205 18.0983 53.1015 17.7393C52.9826 17.3802 52.9401 17.0002 52.9767 16.6237ZM57.2128 16.6237C57.2128 15.3832 56.6555 14.6577 55.6775 14.6577C54.6957 14.6577 54.1435 15.3832 54.1435 16.6237C54.1435 17.8742 54.6958 18.5941 55.6775 18.5941C56.6555 18.594 57.2128 17.8692 57.2128 16.6237H57.2128Z" fill="white"/>
<path d="M65.5484 19.4886H64.3768L63.194 15.2736H63.1046L61.9268 19.4886H60.7663L59.1888 13.7656H60.3343L61.3595 18.1326H61.4439L62.6206 13.7656H63.7041L64.8807 18.1326H64.9701L65.9903 13.7656H67.1198L65.5484 19.4886Z" fill="white"/>
<path d="M68.4483 13.7645H69.5356V14.6737H69.62C69.7632 14.3472 70.0047 14.0734 70.3108 13.8907C70.6169 13.7079 70.9725 13.6252 71.3278 13.6541C71.6063 13.6331 71.8859 13.6751 72.1459 13.7769C72.406 13.8787 72.6398 14.0377 72.83 14.2421C73.0202 14.4466 73.162 14.6912 73.2449 14.9578C73.3278 15.2245 73.3496 15.5064 73.3087 15.7827V19.4875H72.1793V16.0663C72.1793 15.1466 71.7796 14.6892 70.9443 14.6892C70.7552 14.6804 70.5665 14.7126 70.391 14.7835C70.2156 14.8545 70.0575 14.9626 69.9277 15.1003C69.798 15.2381 69.6995 15.4022 69.6391 15.5816C69.5787 15.761 69.5578 15.9513 69.5778 16.1395V19.4875H68.4483L68.4483 13.7645Z" fill="white"/>
<path d="M75.1065 11.5312H76.2359V19.4883H75.1065V11.5312Z" fill="white"/>
<path d="M77.8077 16.6258C77.7718 16.2496 77.8148 15.8702 77.9341 15.5117C78.0534 15.1531 78.2463 14.8235 78.5005 14.5439C78.7546 14.2643 79.0644 14.0409 79.4099 13.8881C79.7555 13.7352 80.1291 13.6562 80.507 13.6562C80.8848 13.6562 81.2585 13.7352 81.604 13.8881C81.9495 14.0409 82.2593 14.2643 82.5134 14.5439C82.7676 14.8235 82.9605 15.1531 83.0798 15.5117C83.1991 15.8702 83.2421 16.2496 83.2062 16.6258C83.2428 17.0023 83.2002 17.3823 83.0813 17.7413C82.9623 18.1004 82.7695 18.4306 82.5153 18.7107C82.2611 18.9909 81.9511 19.2147 81.6052 19.3679C81.2593 19.5211 80.8852 19.6002 80.507 19.6002C80.1287 19.6002 79.7546 19.5211 79.4087 19.3679C79.0629 19.2147 78.7529 18.9909 78.4987 18.7107C78.2445 18.4306 78.0517 18.1004 77.9327 17.7413C77.8137 17.3823 77.7711 17.0023 77.8077 16.6258ZM82.0438 16.6258C82.0438 15.3852 81.4865 14.6598 80.5085 14.6598C79.5268 14.6598 78.9745 15.3852 78.9745 16.6258C78.9745 17.8763 79.5268 18.5961 80.5085 18.5961C81.4865 18.5961 82.0438 17.8713 82.0438 16.6258H82.0438Z" fill="white"/>
<path d="M84.3946 17.8712C84.3946 16.8411 85.1617 16.2472 86.5232 16.1628L88.0734 16.0734V15.5794C88.0734 14.975 87.6738 14.6337 86.9018 14.6337C86.2713 14.6337 85.8344 14.8651 85.709 15.2698H84.6155C84.731 14.2868 85.6556 13.6562 86.9539 13.6562C88.3887 13.6562 89.1979 14.3705 89.1979 15.5794V19.4897H88.1107V18.6854H88.0213C87.8399 18.9739 87.5852 19.2091 87.2832 19.367C86.9812 19.5248 86.6427 19.5997 86.3023 19.584C86.062 19.609 85.8192 19.5833 85.5895 19.5087C85.3597 19.4341 85.1482 19.3122 84.9684 19.1508C84.7887 18.9895 84.6448 18.7922 84.546 18.5718C84.4471 18.3514 84.3956 18.1128 84.3946 17.8712ZM88.0734 17.3822V16.9037L86.6759 16.9931C85.8877 17.0458 85.5303 17.3139 85.5303 17.8185C85.5303 18.3335 85.9771 18.6333 86.5915 18.6333C86.7715 18.6515 86.9534 18.6333 87.1262 18.5798C87.2991 18.5263 87.4594 18.4386 87.5977 18.3219C87.7359 18.2052 87.8493 18.0618 87.931 17.9004C88.0128 17.739 88.0612 17.5627 88.0734 17.3822Z" fill="white"/>
<path d="M90.6817 16.6244C90.6817 14.816 91.6114 13.6704 93.0573 13.6704C93.415 13.6539 93.7699 13.7396 94.0807 13.9174C94.3915 14.0952 94.6452 14.3578 94.8123 14.6745H94.8967V11.5312H96.0262V19.4883H94.9439V18.5841H94.8545C94.6745 18.8987 94.4119 19.158 94.0952 19.334C93.7784 19.51 93.4195 19.596 93.0573 19.5826C91.6014 19.5827 90.6817 18.4371 90.6817 16.6244ZM91.8485 16.6244C91.8485 17.8382 92.4206 18.5686 93.3776 18.5686C94.3295 18.5686 94.9178 17.8277 94.9178 16.6293C94.9178 15.4366 94.3233 14.6851 93.3776 14.6851C92.4268 14.6851 91.8484 15.4204 91.8484 16.6244H91.8485Z" fill="white"/>
<path d="M100.7 16.6257C100.664 16.2496 100.707 15.8701 100.826 15.5116C100.945 15.1531 101.138 14.8235 101.392 14.5439C101.646 14.2643 101.956 14.0409 102.301 13.8881C102.647 13.7352 103.021 13.6562 103.398 13.6562C103.776 13.6563 104.15 13.7352 104.495 13.8881C104.841 14.0409 105.151 14.2643 105.405 14.5439C105.659 14.8235 105.852 15.1531 105.971 15.5116C106.09 15.8701 106.133 16.2496 106.097 16.6257C106.134 17.0021 106.091 17.3821 105.973 17.7412C105.854 18.1003 105.661 18.4305 105.407 18.7106C105.152 18.9908 104.842 19.2146 104.497 19.3678C104.151 19.521 103.777 19.6002 103.398 19.6002C103.02 19.6002 102.646 19.521 102.3 19.3678C101.954 19.2146 101.644 18.9908 101.39 18.7106C101.136 18.4305 100.943 18.1003 100.824 17.7412C100.705 17.3821 100.663 17.0021 100.7 16.6257ZM104.936 16.6257C104.936 15.3851 104.378 14.6597 103.4 14.6597C102.419 14.6597 101.866 15.3851 101.866 16.6257C101.866 17.8761 102.419 18.596 103.4 18.596C104.378 18.596 104.936 17.8712 104.936 16.6257Z" fill="white"/>
<path d="M107.611 13.7645H108.699V14.6737H108.783C108.926 14.3472 109.168 14.0734 109.474 13.8907C109.78 13.7079 110.135 13.6252 110.491 13.6541C110.769 13.6331 111.049 13.6751 111.309 13.7769C111.569 13.8787 111.803 14.0377 111.993 14.2421C112.183 14.4466 112.325 14.6912 112.408 14.9578C112.491 15.2245 112.513 15.5064 112.472 15.7827V19.4875H111.342V16.0663C111.342 15.1466 110.943 14.6892 110.107 14.6892C109.918 14.6804 109.73 14.7126 109.554 14.7835C109.379 14.8545 109.221 14.9626 109.091 15.1003C108.961 15.2381 108.863 15.4022 108.802 15.5816C108.742 15.761 108.721 15.9513 108.741 16.1395V19.4875H107.611V13.7645Z" fill="white"/>
<path d="M118.857 12.3398V13.7908H120.097V14.7421H118.857V17.6849C118.857 18.2844 119.104 18.5469 119.666 18.5469C119.81 18.5464 119.954 18.5377 120.097 18.5208V19.4616C119.894 19.4979 119.688 19.5172 119.482 19.5193C118.226 19.5193 117.726 19.0775 117.726 17.9741V14.7421H116.817V13.7907H117.726V12.3398H118.857Z" fill="white"/>
<path d="M121.637 11.5312H122.757V14.685H122.846C122.996 14.3555 123.244 14.0802 123.556 13.8967C123.869 13.7133 124.23 13.6305 124.591 13.6598C124.868 13.6448 125.145 13.691 125.402 13.7953C125.659 13.8996 125.89 14.0593 126.078 14.2631C126.266 14.4668 126.407 14.7097 126.491 14.9742C126.575 15.2387 126.599 15.5184 126.562 15.7934V19.4883H125.431V16.072C125.431 15.1579 125.006 14.695 124.208 14.695C124.013 14.679 123.818 14.7057 123.635 14.7731C123.453 14.8406 123.287 14.9471 123.15 15.0853C123.012 15.2235 122.907 15.39 122.841 15.5732C122.775 15.7564 122.749 15.9519 122.767 16.1459V19.4883H121.637L121.637 11.5312Z" fill="white"/>
<path d="M133.147 17.9426C132.994 18.4656 132.661 18.9181 132.208 19.2208C131.754 19.5234 131.209 19.6571 130.667 19.5983C130.29 19.6082 129.916 19.536 129.569 19.3867C129.223 19.2373 128.913 19.0143 128.662 18.7333C128.41 18.4522 128.223 18.1198 128.113 17.7591C128.002 17.3984 127.972 17.018 128.024 16.6443C127.973 16.2696 128.004 15.8884 128.114 15.5266C128.224 15.1648 128.41 14.8308 128.661 14.5473C128.911 14.2638 129.219 14.0373 129.564 13.8833C129.91 13.7292 130.284 13.6512 130.662 13.6544C132.255 13.6544 133.215 14.7423 133.215 16.5394V16.9336H129.174V16.9968C129.156 17.2069 129.183 17.4183 129.252 17.6175C129.32 17.8167 129.43 17.9993 129.574 18.1537C129.717 18.3081 129.891 18.4307 130.085 18.5139C130.279 18.597 130.488 18.6387 130.698 18.6364C130.968 18.6688 131.242 18.6202 131.485 18.4966C131.727 18.3731 131.927 18.1802 132.06 17.9426L133.147 17.9426ZM129.174 16.0982H132.065C132.079 15.9062 132.053 15.7132 131.988 15.5318C131.923 15.3505 131.821 15.1846 131.689 15.045C131.556 14.9054 131.396 14.7951 131.218 14.7211C131.04 14.6472 130.849 14.6113 130.656 14.6157C130.461 14.6132 130.267 14.6499 130.086 14.7235C129.905 14.7972 129.741 14.9063 129.602 15.0445C129.464 15.1826 129.355 15.3471 129.282 15.528C129.208 15.709 129.172 15.9029 129.174 16.0982H129.174Z" fill="white"/>
</svg>
