<svg width="172" height="52" viewBox="0 0 172 52" fill="none" xmlns="http://www.w3.org/2000/svg">
<path d="M165.645 0.808594H6.77661C3.26699 0.808594 0.421875 3.65371 0.421875 7.16333V45.2917C0.421875 48.8014 3.26699 51.6465 6.77661 51.6465H165.645C169.155 51.6465 172 48.8014 172 45.2917V7.16333C172 3.65371 169.155 0.808594 165.645 0.808594Z" fill="black"/>
<path d="M165.645 1.82535C167.061 1.82535 168.418 2.38774 169.42 3.38881C170.421 4.38987 170.983 5.74761 170.983 7.16333V45.2917C170.983 46.7075 170.421 48.0652 169.42 49.0663C168.418 50.0673 167.061 50.6297 165.645 50.6297H6.77661C5.36089 50.6297 4.00316 50.0673 3.00209 49.0663C2.00102 48.0652 1.43863 46.7075 1.43863 45.2917V7.16333C1.43863 5.74761 2.00102 4.38987 3.00209 3.38881C4.00316 2.38774 5.36089 1.82535 6.77661 1.82535H165.645ZM165.645 0.808594H6.77661C5.09123 0.808594 3.47488 1.47811 2.28313 2.66985C1.09139 3.8616 0.421875 5.47795 0.421875 7.16333V45.2917C0.421875 46.9771 1.09139 48.5935 2.28313 49.7852C3.47488 50.977 5.09123 51.6465 6.77661 51.6465H165.645C167.33 51.6465 168.947 50.977 170.138 49.7852C171.33 48.5935 172 46.9771 172 45.2917V7.16333C172 5.47795 171.33 3.8616 170.138 2.66985C168.947 1.47811 167.33 0.808594 165.645 0.808594Z" fill="#A6A6A6"/>
<path d="M55.906 12.5454H57.9969V15.4465C57.6832 15.5528 57.36 15.6319 57.0272 15.6838C56.6971 15.7356 56.3275 15.7615 55.9183 15.7615C55.2963 15.7615 54.7712 15.6374 54.3429 15.3892C53.9174 15.1409 53.5941 14.7877 53.3732 14.3294C53.1522 13.8684 53.0417 13.3214 53.0417 12.6886C53.0417 12.0694 53.1631 11.5292 53.4059 11.0682C53.6514 10.6072 54.0047 10.2499 54.4657 9.99618C54.9294 9.73976 55.4859 9.61155 56.1351 9.61155C56.4679 9.61155 56.783 9.64292 57.0804 9.70566C57.3804 9.76568 57.6587 9.8516 57.9151 9.96345L57.6491 10.569C57.4282 10.4736 57.184 10.3917 56.9167 10.3235C56.6521 10.2553 56.3779 10.2212 56.0942 10.2212C55.6059 10.2212 55.1872 10.3222 54.838 10.524C54.4916 10.7259 54.2256 11.0109 54.0401 11.3792C53.8574 11.7475 53.766 12.1839 53.766 12.6886C53.766 13.1878 53.8465 13.6229 54.0074 13.9939C54.1684 14.3621 54.4193 14.6486 54.7603 14.8531C55.1013 15.0577 55.5405 15.16 56.0779 15.16C56.3479 15.16 56.5798 15.145 56.7735 15.115C56.9671 15.0823 57.1431 15.0441 57.3013 15.0004V13.1673H55.906V12.5454ZM62.7761 15.6797H59.4454V9.69748H62.7761V10.3112H60.141V12.2467H62.6247V12.8523H60.141V15.0659H62.7761V15.6797ZM65.9391 15.6797H65.2394V10.3112H63.3572V9.69748H67.8131V10.3112H65.9391V15.6797ZM70.8943 15.6797V9.69748H71.5899V15.6797H70.8943ZM75.072 15.6797H74.3723V10.3112H72.4901V9.69748H76.946V10.3112H75.072V15.6797ZM85.2155 12.6804C85.2155 13.1414 85.1569 13.5615 85.0396 13.9407C84.9223 14.3171 84.7477 14.6417 84.5159 14.9145C84.2867 15.1846 84.0016 15.3933 83.6607 15.5406C83.3197 15.6879 82.9241 15.7615 82.474 15.7615C82.0103 15.7615 81.6052 15.6879 81.2588 15.5406C80.9151 15.3933 80.6286 15.1832 80.3995 14.9104C80.1731 14.6376 80.0026 14.3117 79.888 13.9325C79.7762 13.5533 79.7203 13.1332 79.7203 12.6722C79.7203 12.0612 79.8212 11.5251 80.0231 11.0641C80.2249 10.6031 80.5304 10.2444 80.9396 9.988C81.3515 9.73158 81.8671 9.60337 82.4863 9.60337C83.0783 9.60337 83.5761 9.73021 83.9798 9.98391C84.3863 10.2376 84.6932 10.5949 84.9005 11.056C85.1105 11.5142 85.2155 12.0557 85.2155 12.6804ZM80.4527 12.6804C80.4527 13.1878 80.525 13.627 80.6696 13.998C80.8141 14.3689 81.0351 14.6554 81.3324 14.8572C81.6325 15.0591 82.013 15.16 82.474 15.16C82.9378 15.16 83.317 15.0591 83.6116 14.8572C83.9089 14.6554 84.1285 14.3689 84.2703 13.998C84.4122 13.627 84.4831 13.1878 84.4831 12.6804C84.4831 11.9084 84.3208 11.3056 83.9962 10.8718C83.6743 10.4354 83.171 10.2171 82.4863 10.2171C82.0226 10.2171 81.6407 10.3167 81.3406 10.5158C81.0406 10.715 80.8169 10.9987 80.6696 11.3669C80.525 11.7325 80.4527 12.1703 80.4527 12.6804ZM91.2264 15.6797H90.4244L87.1632 10.655H87.1305C87.1387 10.7886 87.1482 10.9414 87.1592 11.1132C87.1701 11.2824 87.1782 11.4638 87.1837 11.6575C87.1919 11.8484 87.196 12.0434 87.196 12.2426V15.6797H86.5495V9.69748H87.3474L90.5963 14.7058H90.6249C90.6194 14.6104 90.6126 14.4753 90.6044 14.3008C90.5963 14.1234 90.5881 13.9339 90.5799 13.732C90.5744 13.5274 90.5717 13.3378 90.5717 13.1632V9.69748H91.2264V15.6797Z" fill="white"/>
<path d="M55.906 12.5454V12.4454H55.806V12.5454H55.906ZM57.9969 12.5454H58.0969V12.4454H57.9969V12.5454ZM57.9969 15.4465L58.029 15.5412L58.0969 15.5181V15.4465H57.9969ZM57.0272 15.6838L57.0118 15.585L57.0116 15.585L57.0272 15.6838ZM54.3429 15.3892L54.2926 15.4755L54.2928 15.4757L54.3429 15.3892ZM53.3732 14.3294L53.283 14.3726L53.2831 14.3728L53.3732 14.3294ZM53.4059 11.0682L53.3177 11.0212L53.3174 11.0216L53.4059 11.0682ZM54.4657 9.99618L54.5139 10.0838L54.5141 10.0837L54.4657 9.99618ZM57.0804 9.70566L57.0597 9.80351L57.0607 9.80372L57.0804 9.70566ZM57.9151 9.96345L58.0066 10.0037L58.047 9.91187L57.9551 9.87179L57.9151 9.96345ZM57.6491 10.569L57.6094 10.6608L57.7007 10.7003L57.7407 10.6092L57.6491 10.569ZM56.9167 10.3235L56.8917 10.4204L56.892 10.4204L56.9167 10.3235ZM54.838 10.524L54.788 10.4374L54.7877 10.4376L54.838 10.524ZM54.0401 11.3792L53.9508 11.3342L53.9506 11.3348L54.0401 11.3792ZM54.0074 13.9939L53.9157 14.0337L53.9158 14.0339L54.0074 13.9939ZM54.7603 14.8531L54.7089 14.9389L54.7603 14.8531ZM56.7735 15.115L56.7888 15.2138L56.7901 15.2136L56.7735 15.115ZM57.3013 15.0004L57.3279 15.0968L57.4013 15.0766V15.0004H57.3013ZM57.3013 13.1673H57.4013V13.0673H57.3013V13.1673ZM55.906 13.1673H55.806V13.2673H55.906V13.1673ZM55.906 12.6454H57.9969V12.4454H55.906V12.6454ZM57.8969 12.5454V15.4465H58.0969V12.5454H57.8969ZM57.9648 15.3518C57.6566 15.4563 57.339 15.534 57.0118 15.585L57.0425 15.7826C57.3809 15.7299 57.7098 15.6494 58.029 15.5412L57.9648 15.3518ZM57.0116 15.585C56.6877 15.6359 56.3234 15.6615 55.9183 15.6615V15.8615C56.3315 15.8615 56.7065 15.8354 57.0427 15.7826L57.0116 15.585ZM55.9183 15.6615C55.3095 15.6615 54.8027 15.5401 54.3931 15.3027L54.2928 15.4757C54.7397 15.7347 55.2832 15.8615 55.9183 15.8615V15.6615ZM54.3933 15.3028C53.9856 15.0649 53.6759 14.7269 53.4633 14.286L53.2831 14.3728C53.5124 14.8484 53.8492 15.2169 54.2926 15.4755L54.3933 15.3028ZM53.4634 14.2862C53.2502 13.8415 53.1417 13.31 53.1417 12.6886H52.9417C52.9417 13.3329 53.0542 13.8953 53.283 14.3726L53.4634 14.2862ZM53.1417 12.6886C53.1417 12.0825 53.2605 11.559 53.4944 11.1148L53.3174 11.0216C53.0658 11.4995 52.9417 12.0562 52.9417 12.6886H53.1417ZM53.4942 11.1152C53.7305 10.6715 54.0698 10.3282 54.5139 10.0838L54.4175 9.90857C53.9396 10.1715 53.5724 10.5429 53.3177 11.0212L53.4942 11.1152ZM54.5141 10.0837C54.96 9.83712 55.4991 9.71155 56.1351 9.71155V9.51155C55.4728 9.51155 54.8988 9.64241 54.4173 9.90867L54.5141 10.0837ZM56.1351 9.71155C56.4617 9.71155 56.7698 9.74233 57.0597 9.80351L57.101 9.60782C56.7963 9.54352 56.4742 9.51155 56.1351 9.51155V9.71155ZM57.0607 9.80372C57.3545 9.86246 57.6258 9.94637 57.8751 10.0551L57.9551 9.87179C57.6915 9.75684 57.4064 9.66889 57.1 9.60761L57.0607 9.80372ZM57.8235 9.92324L57.5576 10.5288L57.7407 10.6092L58.0066 10.0037L57.8235 9.92324ZM57.6888 10.4772C57.4623 10.3794 57.2131 10.2959 56.9414 10.2266L56.892 10.4204C57.1549 10.4875 57.394 10.5677 57.6094 10.6608L57.6888 10.4772ZM56.9416 10.2267C56.6686 10.1563 56.386 10.1212 56.0942 10.1212V10.3212C56.3698 10.3212 56.6356 10.3543 56.8917 10.4204L56.9416 10.2267ZM56.0942 10.1212C55.5921 10.1212 55.1553 10.2251 54.788 10.4374L54.8881 10.6106C55.2191 10.4192 55.6198 10.3212 56.0942 10.3212V10.1212ZM54.7877 10.4376C54.424 10.6495 54.1448 10.9492 53.9508 11.3342L54.1295 11.4242C54.3065 11.0727 54.5592 10.8023 54.8884 10.6104L54.7877 10.4376ZM53.9506 11.3348C53.7596 11.7196 53.666 12.172 53.666 12.6886H53.866C53.866 12.1959 53.9552 11.7753 54.1297 11.4237L53.9506 11.3348ZM53.666 12.6886C53.666 13.1984 53.7482 13.6475 53.9157 14.0337L54.0992 13.9541C53.9448 13.5982 53.866 13.1772 53.866 12.6886H53.666ZM53.9158 14.0339C54.085 14.421 54.3499 14.7235 54.7089 14.9389L54.8118 14.7674C54.4888 14.5736 54.2518 14.3033 54.099 13.9538L53.9158 14.0339ZM54.7089 14.9389C55.0699 15.1555 55.5285 15.26 56.0779 15.26V15.06C55.5524 15.06 55.1327 14.9599 54.8118 14.7674L54.7089 14.9389ZM56.0779 15.26C56.3513 15.26 56.5885 15.2449 56.7888 15.2138L56.7582 15.0162C56.571 15.0452 56.3446 15.06 56.0779 15.06V15.26ZM56.7901 15.2136C56.9865 15.1804 57.1659 15.1416 57.3279 15.0968L57.2747 14.904C57.1203 14.9466 56.9478 14.9841 56.7568 15.0164L56.7901 15.2136ZM57.4013 15.0004V13.1673H57.2013V15.0004H57.4013ZM57.3013 13.0673H55.906V13.2673H57.3013V13.0673ZM56.006 13.1673V12.5454H55.806V13.1673H56.006ZM62.7761 15.6797V15.7797H62.8761V15.6797H62.7761ZM59.4454 15.6797H59.3454V15.7797H59.4454V15.6797ZM59.4454 9.69748V9.59748H59.3454V9.69748H59.4454ZM62.7761 9.69748H62.8761V9.59748H62.7761V9.69748ZM62.7761 10.3112V10.4112H62.8761V10.3112H62.7761ZM60.141 10.3112V10.2112H60.041V10.3112H60.141ZM60.141 12.2467H60.041V12.3467H60.141V12.2467ZM62.6247 12.2467H62.7247V12.1467H62.6247V12.2467ZM62.6247 12.8523V12.9523H62.7247V12.8523H62.6247ZM60.141 12.8523V12.7523H60.041V12.8523H60.141ZM60.141 15.0659H60.041V15.1659H60.141V15.0659ZM62.7761 15.0659H62.8761V14.9659H62.7761V15.0659ZM62.7761 15.5797H59.4454V15.7797H62.7761V15.5797ZM59.5454 15.6797V9.69748H59.3454V15.6797H59.5454ZM59.4454 9.79748H62.7761V9.59748H59.4454V9.79748ZM62.6761 9.69748V10.3112H62.8761V9.69748H62.6761ZM62.7761 10.2112H60.141V10.4112H62.7761V10.2112ZM60.041 10.3112V12.2467H60.241V10.3112H60.041ZM60.141 12.3467H62.6247V12.1467H60.141V12.3467ZM62.5247 12.2467V12.8523H62.7247V12.2467H62.5247ZM62.6247 12.7523H60.141V12.9523H62.6247V12.7523ZM60.041 12.8523V15.0659H60.241V12.8523H60.041ZM60.141 15.1659H62.7761V14.9659H60.141V15.1659ZM62.6761 15.0659V15.6797H62.8761V15.0659H62.6761ZM65.9391 15.6797V15.7797H66.0391V15.6797H65.9391ZM65.2394 15.6797H65.1394V15.7797H65.2394V15.6797ZM65.2394 10.3112H65.3394V10.2112H65.2394V10.3112ZM63.3572 10.3112H63.2572V10.4112H63.3572V10.3112ZM63.3572 9.69748V9.59748H63.2572V9.69748H63.3572ZM67.8131 9.69748H67.9131V9.59748H67.8131V9.69748ZM67.8131 10.3112V10.4112H67.9131V10.3112H67.8131ZM65.9391 10.3112V10.2112H65.8391V10.3112H65.9391ZM65.9391 15.5797H65.2394V15.7797H65.9391V15.5797ZM65.3394 15.6797V10.3112H65.1394V15.6797H65.3394ZM65.2394 10.2112H63.3572V10.4112H65.2394V10.2112ZM63.4572 10.3112V9.69748H63.2572V10.3112H63.4572ZM63.3572 9.79748H67.8131V9.59748H63.3572V9.79748ZM67.7131 9.69748V10.3112H67.9131V9.69748H67.7131ZM67.8131 10.2112H65.9391V10.4112H67.8131V10.2112ZM65.8391 10.3112V15.6797H66.0391V10.3112H65.8391ZM70.8943 15.6797H70.7943V15.7797H70.8943V15.6797ZM70.8943 9.69748V9.59748H70.7943V9.69748H70.8943ZM71.5899 9.69748H71.6899V9.59748H71.5899V9.69748ZM71.5899 15.6797V15.7797H71.6899V15.6797H71.5899ZM70.9943 15.6797V9.69748H70.7943V15.6797H70.9943ZM70.8943 9.79748H71.5899V9.59748H70.8943V9.79748ZM71.4899 9.69748V15.6797H71.6899V9.69748H71.4899ZM71.5899 15.5797H70.8943V15.7797H71.5899V15.5797ZM75.072 15.6797V15.7797H75.172V15.6797H75.072ZM74.3723 15.6797H74.2723V15.7797H74.3723V15.6797ZM74.3723 10.3112H74.4723V10.2112H74.3723V10.3112ZM72.4901 10.3112H72.3901V10.4112H72.4901V10.3112ZM72.4901 9.69748V9.59748H72.3901V9.69748H72.4901ZM76.946 9.69748H77.046V9.59748H76.946V9.69748ZM76.946 10.3112V10.4112H77.046V10.3112H76.946ZM75.072 10.3112V10.2112H74.972V10.3112H75.072ZM75.072 15.5797H74.3723V15.7797H75.072V15.5797ZM74.4723 15.6797V10.3112H74.2723V15.6797H74.4723ZM74.3723 10.2112H72.4901V10.4112H74.3723V10.2112ZM72.5901 10.3112V9.69748H72.3901V10.3112H72.5901ZM72.4901 9.79748H76.946V9.59748H72.4901V9.79748ZM76.846 9.69748V10.3112H77.046V9.69748H76.846ZM76.946 10.2112H75.072V10.4112H76.946V10.2112ZM74.972 10.3112V15.6797H75.172V10.3112H74.972ZM85.0396 13.9407L85.1351 13.9704L85.1351 13.9702L85.0396 13.9407ZM84.5159 14.9145L84.4397 14.8498L84.4396 14.8498L84.5159 14.9145ZM83.6607 15.5406L83.7003 15.6324L83.6607 15.5406ZM81.2588 15.5406L81.2194 15.6325L81.2197 15.6326L81.2588 15.5406ZM80.3995 14.9104L80.3226 14.9743L80.3229 14.9747L80.3995 14.9104ZM79.888 13.9325L79.7921 13.9608L79.7923 13.9614L79.888 13.9325ZM80.9396 9.988L80.8868 9.9031L80.8865 9.90326L80.9396 9.988ZM83.9798 9.98391L83.9266 10.0686L83.9269 10.0687L83.9798 9.98391ZM84.9005 11.056L84.8093 11.097L84.8096 11.0976L84.9005 11.056ZM81.3324 14.8572L81.2763 14.94L81.2766 14.9402L81.3324 14.8572ZM83.6116 14.8572L83.5554 14.7745L83.555 14.7747L83.6116 14.8572ZM83.9962 10.8718L83.9157 10.9312L83.9161 10.9317L83.9962 10.8718ZM81.3406 10.5158L81.2853 10.4325L81.3406 10.5158ZM80.6696 11.3669L80.5767 11.3298L80.5766 11.3302L80.6696 11.3669ZM85.1155 12.6804C85.1155 13.133 85.058 13.5429 84.9441 13.9111L85.1351 13.9702C85.2558 13.5801 85.3155 13.1498 85.3155 12.6804H85.1155ZM84.9441 13.9109C84.8304 14.2758 84.662 14.5882 84.4397 14.8498L84.592 14.9793C84.8335 14.6952 85.0142 14.3584 85.1351 13.9704L84.9441 13.9109ZM84.4396 14.8498C84.2209 15.1076 83.9486 15.3073 83.621 15.4488L83.7003 15.6324C84.0547 15.4793 84.3525 15.2616 84.5921 14.9792L84.4396 14.8498ZM83.621 15.4488C83.2949 15.5896 82.9133 15.6615 82.474 15.6615V15.8615C82.935 15.8615 83.3445 15.7861 83.7003 15.6324L83.621 15.4488ZM82.474 15.6615C82.0207 15.6615 81.6295 15.5895 81.2979 15.4485L81.2197 15.6326C81.581 15.7862 81.9999 15.8615 82.474 15.8615V15.6615ZM81.2982 15.4487C80.9681 15.3072 80.6946 15.1063 80.4761 14.8461L80.3229 14.9747C80.5626 15.2601 80.862 15.4793 81.2194 15.6325L81.2982 15.4487ZM80.4765 14.8466C80.2595 14.5852 80.0949 14.2715 79.9838 13.9036L79.7923 13.9614C79.9103 14.3519 80.0867 14.6901 80.3226 14.9743L80.4765 14.8466ZM79.9839 13.9042C79.8752 13.5356 79.8203 13.1252 79.8203 12.6722H79.6203C79.6203 13.1413 79.6772 13.571 79.7921 13.9608L79.9839 13.9042ZM79.8203 12.6722C79.8203 12.0721 79.9194 11.5502 80.1147 11.1043L79.9315 11.024C79.723 11.5001 79.6203 12.0503 79.6203 12.6722H79.8203ZM80.1147 11.1043C80.3088 10.6608 80.6013 10.318 80.9927 10.0727L80.8865 9.90326C80.4596 10.1708 80.141 10.5454 79.9315 11.024L80.1147 11.1043ZM80.9925 10.0729C81.3847 9.82873 81.8807 9.70337 82.4863 9.70337V9.50337C81.8535 9.50337 81.3184 9.63443 80.8868 9.9031L80.9925 10.0729ZM82.4863 9.70337C83.064 9.70337 83.5423 9.82707 83.9266 10.0686L84.033 9.89924C83.6099 9.63336 83.0926 9.50337 82.4863 9.50337V9.70337ZM83.9269 10.0687C84.3156 10.3113 84.6096 10.653 84.8093 11.097L84.9917 11.0149C84.7767 10.5369 84.457 10.1639 84.0328 9.89907L83.9269 10.0687ZM84.8096 11.0976C85.0124 11.5401 85.1155 12.0668 85.1155 12.6804H85.3155C85.3155 12.0447 85.2087 11.4884 84.9914 11.0143L84.8096 11.0976ZM80.3527 12.6804C80.3527 13.1969 80.4262 13.649 80.5764 14.0343L80.7627 13.9616C80.6237 13.6049 80.5527 13.1786 80.5527 12.6804H80.3527ZM80.5764 14.0343C80.7275 14.422 80.9604 14.7255 81.2763 14.94L81.3886 14.7745C81.1098 14.5852 80.9008 14.3159 80.7627 13.9616L80.5764 14.0343ZM81.2766 14.9402C81.5972 15.1559 81.9986 15.26 82.474 15.26V15.06C82.0275 15.06 81.6678 14.9623 81.3883 14.7743L81.2766 14.9402ZM82.474 15.26C82.952 15.26 83.3525 15.156 83.6681 14.9397L83.555 14.7747C83.2814 14.9622 82.9236 15.06 82.474 15.06V15.26ZM83.6677 14.94C83.9838 14.7254 84.2154 14.4217 84.3637 14.0337L84.1769 13.9622C84.0416 14.3162 83.834 14.5853 83.5554 14.7745L83.6677 14.94ZM84.3637 14.0337C84.511 13.6486 84.5831 13.1968 84.5831 12.6804H84.3831C84.3831 13.1788 84.3134 13.6053 84.1769 13.9622L84.3637 14.0337ZM84.5831 12.6804C84.5831 11.8957 84.4183 11.2689 84.0763 10.8119L83.9161 10.9317C84.2233 11.3422 84.3831 11.9211 84.3831 12.6804H84.5831ZM84.0767 10.8125C83.731 10.3438 83.1935 10.1171 82.4863 10.1171V10.3171C83.1485 10.3171 83.6176 10.5269 83.9157 10.9312L84.0767 10.8125ZM82.4863 10.1171C82.0085 10.1171 81.6059 10.2198 81.2853 10.4325L81.3959 10.5992C81.6755 10.4136 82.0366 10.3171 82.4863 10.3171V10.1171ZM81.2853 10.4325C80.9666 10.644 80.7308 10.9447 80.5767 11.3298L80.7624 11.4041C80.903 11.0527 81.1145 10.7859 81.3959 10.5992L81.2853 10.4325ZM80.5766 11.3302C80.4262 11.7103 80.3527 12.1613 80.3527 12.6804H80.5527C80.5527 12.1793 80.6238 11.7546 80.7626 11.4037L80.5766 11.3302ZM91.2264 15.6797V15.7797H91.3264V15.6797H91.2264ZM90.4244 15.6797L90.3405 15.7341L90.3701 15.7797H90.4244V15.6797ZM87.1632 10.655L87.2471 10.6005L87.2176 10.555H87.1632V10.655ZM87.1305 10.655V10.555H87.0242L87.0307 10.6611L87.1305 10.655ZM87.1592 11.1132L87.0594 11.1196L87.0594 11.1197L87.1592 11.1132ZM87.1837 11.6575L87.0837 11.6603L87.0838 11.6617L87.1837 11.6575ZM87.196 15.6797V15.7797H87.296V15.6797H87.196ZM86.5495 15.6797H86.4495V15.7797H86.5495V15.6797ZM86.5495 9.69748V9.59748H86.4495V9.69748H86.5495ZM87.3474 9.69748L87.4313 9.64306L87.4017 9.59748H87.3474V9.69748ZM90.5963 14.7058L90.5124 14.7603L90.5419 14.8058H90.5963V14.7058ZM90.6249 14.7058V14.8058H90.7308L90.7247 14.7001L90.6249 14.7058ZM90.6044 14.3008L90.5045 14.3054L90.5046 14.3054L90.6044 14.3008ZM90.5799 13.732L90.4799 13.7347L90.48 13.736L90.5799 13.732ZM90.5717 9.69748V9.59748H90.4717V9.69748H90.5717ZM91.2264 9.69748H91.3264V9.59748H91.2264V9.69748ZM91.2264 15.5797H90.4244V15.7797H91.2264V15.5797ZM90.5083 15.6252L87.2471 10.6005L87.0794 10.7094L90.3405 15.7341L90.5083 15.6252ZM87.1632 10.555H87.1305V10.755H87.1632V10.555ZM87.0307 10.6611C87.0389 10.7948 87.0484 10.9477 87.0594 11.1196L87.2589 11.1069C87.248 10.9351 87.2385 10.7824 87.2303 10.6488L87.0307 10.6611ZM87.0594 11.1197C87.0702 11.2874 87.0783 11.4676 87.0837 11.6603L87.2837 11.6546C87.2782 11.4599 87.2699 11.2773 87.2589 11.1068L87.0594 11.1197ZM87.0838 11.6617C87.0919 11.8512 87.096 12.0448 87.096 12.2426H87.296C87.296 12.0421 87.2919 11.8456 87.2836 11.6532L87.0838 11.6617ZM87.096 12.2426V15.6797H87.296V12.2426H87.096ZM87.196 15.5797H86.5495V15.7797H87.196V15.5797ZM86.6495 15.6797V9.69748H86.4495V15.6797H86.6495ZM86.5495 9.79748H87.3474V9.59748H86.5495V9.79748ZM87.2635 9.7519L90.5124 14.7603L90.6802 14.6514L87.4313 9.64306L87.2635 9.7519ZM90.5963 14.8058H90.6249V14.6058H90.5963V14.8058ZM90.7247 14.7001C90.7193 14.6052 90.7125 14.4705 90.7043 14.2961L90.5046 14.3054C90.5127 14.4801 90.5196 14.6156 90.5251 14.7115L90.7247 14.7001ZM90.7043 14.2961C90.6962 14.119 90.688 13.9296 90.6798 13.7279L90.48 13.736C90.4882 13.9381 90.4964 14.1278 90.5045 14.3054L90.7043 14.2961ZM90.6799 13.7293C90.6744 13.5255 90.6717 13.3368 90.6717 13.1632H90.4717C90.4717 13.3388 90.4745 13.5293 90.4799 13.7347L90.6799 13.7293ZM90.6717 13.1632V9.69748H90.4717V13.1632H90.6717ZM90.5717 9.79748H91.2264V9.59748H90.5717V9.79748ZM91.1264 9.69748V15.6797H91.3264V9.69748H91.1264Z" fill="white"/>
<path d="M87.0244 28.4525C85.9535 28.455 84.9075 28.775 84.0185 29.372C83.1296 29.969 82.4376 30.8162 82.0301 31.8065C81.6227 32.7968 81.518 33.8856 81.7294 34.9354C81.9407 35.9852 82.4587 36.9487 83.2176 37.7041C83.9766 38.4595 84.9425 38.9729 85.9933 39.1793C87.044 39.3858 88.1324 39.276 89.1207 38.8639C90.1091 38.4518 90.9531 37.7559 91.5459 36.8641C92.1387 35.9723 92.4538 34.9248 92.4513 33.854C92.4617 33.1396 92.3282 32.4305 92.0588 31.7688C91.7894 31.1071 91.3896 30.5064 90.8833 30.0024C90.3769 29.4984 89.7743 29.1015 89.1114 28.8352C88.4484 28.5689 87.7387 28.4387 87.0244 28.4525V28.4525ZM87.0244 37.133C86.368 37.1789 85.713 37.0263 85.1446 36.695C84.5761 36.3638 84.1205 35.8691 83.8368 35.2755C83.5532 34.6818 83.4548 34.0165 83.5543 33.3661C83.6537 32.7158 83.9466 32.1103 84.3947 31.6286C84.8429 31.1469 85.4255 30.8111 86.067 30.6649C86.7085 30.5187 87.3792 30.5689 87.9918 30.8089C88.6044 31.0489 89.1306 31.4677 89.5021 32.0107C89.8735 32.5538 90.073 33.196 90.0746 33.854C90.0951 34.2709 90.0319 34.6876 89.8887 35.0797C89.7456 35.4718 89.5254 35.8312 89.2411 36.1368C88.9568 36.4424 88.6142 36.688 88.2335 36.8591C87.8528 37.0302 87.4416 37.1234 87.0244 37.133ZM75.1791 28.4525C74.1083 28.455 73.0623 28.775 72.1733 29.372C71.2843 29.969 70.5924 30.8162 70.1849 31.8065C69.7774 32.7968 69.6728 33.8856 69.8841 34.9354C70.0955 35.9852 70.6134 36.9487 71.3724 37.7041C72.1314 38.4595 73.0973 38.9729 74.1481 39.1793C75.1988 39.3858 76.2872 39.276 77.2755 38.8639C78.2639 38.4518 79.1078 37.7559 79.7007 36.8641C80.2935 35.9723 80.6086 34.9248 80.6061 33.854C80.6164 33.1396 80.483 32.4305 80.2136 31.7688C79.9442 31.1071 79.5444 30.5064 79.038 30.0024C78.5317 29.4984 77.9291 29.1015 77.2661 28.8352C76.6032 28.5689 75.8934 28.4387 75.1791 28.4525V28.4525ZM75.1791 37.133C74.5228 37.1789 73.8678 37.0263 73.2994 36.695C72.7309 36.3638 72.2752 35.8691 71.9916 35.2755C71.708 34.6818 71.6095 34.0165 71.709 33.3661C71.8085 32.7158 72.1014 32.1103 72.5495 31.6286C72.9976 31.1469 73.5803 30.8111 74.2218 30.6649C74.8633 30.5187 75.5339 30.5689 76.1466 30.8089C76.7592 31.0489 77.2854 31.4677 77.6568 32.0107C78.0283 32.5538 78.2278 33.196 78.2294 33.854C78.2499 34.2709 78.1867 34.6876 78.0435 35.0797C77.9003 35.4718 77.6801 35.8312 77.3958 36.1368C77.1115 36.4424 76.769 36.688 76.3882 36.8591C76.0075 37.0302 75.5964 37.1234 75.1791 37.133ZM61.097 30.1174V32.4051H66.5875C66.5014 33.4826 66.0535 34.4994 65.3166 35.2902C64.7658 35.8513 64.1034 36.2906 63.3722 36.5796C62.6409 36.8685 61.8572 37.0008 61.0716 36.9678C59.4536 36.9678 57.9019 36.3251 56.7579 35.181C55.6138 34.0369 54.9711 32.4852 54.9711 30.8673C54.9711 29.2493 55.6138 27.6976 56.7579 26.5535C57.9019 25.4095 59.4536 24.7667 61.0716 24.7667C62.6227 24.7436 64.1205 25.3327 65.2403 26.4062L66.8544 24.7921C66.0969 24.0429 65.1975 23.4524 64.2089 23.0552C63.2203 22.658 62.1623 22.4621 61.097 22.479C59.9672 22.435 58.84 22.6196 57.7832 23.0217C56.7264 23.4237 55.7616 24.035 54.9466 24.8188C54.1317 25.6027 53.4833 26.543 53.0405 27.5834C52.5976 28.6238 52.3694 29.7429 52.3694 30.8736C52.3694 32.0043 52.5976 33.1234 53.0405 34.1638C53.4833 35.2043 54.1317 36.1446 54.9466 36.9284C55.7616 37.7122 56.7264 38.3235 57.7832 38.7256C58.84 39.1276 59.9672 39.3122 61.097 39.2682C62.1842 39.3116 63.2683 39.1246 64.2781 38.7194C65.2879 38.3141 66.2005 37.6999 66.9561 36.917C68.2907 35.4508 69.0019 33.5225 68.9388 31.5409C68.9433 31.0639 68.905 30.5875 68.8244 30.1174H61.097ZM118.684 31.8967C118.352 30.9216 117.732 30.0701 116.906 29.455C116.08 28.84 115.087 28.4904 114.057 28.4525C113.362 28.4511 112.674 28.5924 112.036 28.8675C111.397 29.1426 110.822 29.5457 110.345 30.052C109.869 30.5582 109.501 31.1568 109.265 31.8108C109.029 32.4647 108.93 33.1601 108.974 33.854C108.963 35.0142 109.328 36.1467 110.013 37.0825C110.699 38.0183 111.67 38.7071 112.779 39.046C113.889 39.3849 115.078 39.3557 116.17 38.9628C117.262 38.5699 118.197 37.8344 118.836 36.8661L116.993 35.5952C116.719 36.0531 116.329 36.4312 115.863 36.692C115.397 36.9529 114.871 37.0874 114.337 37.0822C113.786 37.1049 113.241 36.9605 112.774 36.6679C112.307 36.3753 111.939 35.9482 111.719 35.4427L118.951 32.4559L118.684 31.8967ZM111.312 33.7015C111.286 33.3067 111.34 32.9107 111.469 32.5368C111.598 32.1629 111.8 31.8184 112.064 31.5237C112.328 31.229 112.648 30.9899 113.006 30.8205C113.363 30.651 113.751 30.5546 114.146 30.5368C114.556 30.5118 114.964 30.6082 115.319 30.814C115.674 31.0197 115.96 31.3256 116.142 31.6934L111.312 33.7015ZM105.44 38.9378H107.817V23.0509H105.44V38.9378ZM101.551 29.6599H101.462C101.107 29.2555 100.669 28.9326 100.178 28.7133C99.6864 28.4939 99.1535 28.3833 98.6154 28.3889C97.2265 28.4563 95.9167 29.0554 94.9576 30.0622C93.9984 31.069 93.4634 32.4063 93.4634 33.7968C93.4634 35.1873 93.9984 36.5246 94.9576 37.5314C95.9167 38.5382 97.2265 39.1373 98.6154 39.2047C99.1542 39.2155 99.6888 39.1072 100.181 38.8875C100.673 38.6678 101.111 38.3421 101.462 37.9337H101.551V38.709C101.551 40.7806 100.446 41.8864 98.6662 41.8864C98.0718 41.8733 97.4947 41.6839 97.0082 41.3422C96.5217 41.0005 96.1477 40.5219 95.9337 39.9672L93.8748 40.8188C94.2554 41.7748 94.9173 42.5929 95.7728 43.1647C96.6283 43.7366 97.6373 44.0354 98.6662 44.0216C101.45 44.0216 103.75 42.382 103.75 38.3913V28.7702H101.551V29.6599ZM98.8187 37.133C97.986 37.0811 97.2044 36.7137 96.6331 36.1057C96.0618 35.4976 95.7437 34.6947 95.7437 33.8603C95.7437 33.026 96.0618 32.2231 96.6331 31.615C97.2044 31.007 97.986 30.6396 98.8187 30.5877C99.2257 30.6052 99.6251 30.7045 99.9929 30.8795C100.361 31.0546 100.69 31.3018 100.96 31.6065C101.23 31.9113 101.437 32.2673 101.567 32.6534C101.697 33.0395 101.748 33.4478 101.716 33.854C101.751 34.2616 101.703 34.672 101.574 35.0603C101.446 35.4487 101.24 35.8069 100.969 36.1135C100.698 36.42 100.368 36.6684 99.9984 36.8436C99.6288 37.0189 99.2275 37.1173 98.8187 37.133V37.133ZM129.817 23.0509H124.123V38.9378H126.5V32.9135H129.817C130.494 32.9621 131.175 32.8707 131.815 32.645C132.456 32.4192 133.043 32.0639 133.54 31.6012C134.037 31.1386 134.433 30.5784 134.704 29.9558C134.975 29.3331 135.115 28.6613 135.115 27.9822C135.115 27.3031 134.975 26.6313 134.704 26.0086C134.433 25.386 134.037 24.8259 133.54 24.3632C133.043 23.9005 132.456 23.5452 131.815 23.3195C131.175 23.0937 130.494 23.0023 129.817 23.0509V23.0509ZM129.817 30.6766H126.5V25.2624H129.868C130.225 25.2624 130.579 25.3327 130.909 25.4694C131.239 25.6061 131.539 25.8064 131.791 26.059C132.044 26.3116 132.244 26.6114 132.381 26.9414C132.517 27.2714 132.588 27.625 132.588 27.9822C132.588 28.3394 132.517 28.6931 132.381 29.023C132.244 29.353 132.044 29.6529 131.791 29.9054C131.539 30.158 131.239 30.3583 130.909 30.495C130.579 30.6317 130.225 30.702 129.868 30.702L129.817 30.6766ZM144.484 28.4016C143.618 28.3483 142.756 28.5498 142.004 28.9812C141.252 29.4126 140.643 30.0551 140.252 30.8291L142.349 31.7061C142.561 31.324 142.879 31.0115 143.264 30.8063C143.65 30.6011 144.087 30.5119 144.522 30.5495C144.824 30.5143 145.129 30.5395 145.421 30.6237C145.713 30.7078 145.985 30.8493 146.222 31.0397C146.459 31.2302 146.655 31.4659 146.799 31.7331C146.944 32.0002 147.034 32.2935 147.064 32.5957V32.7483C146.3 32.3465 145.449 32.1371 144.586 32.1382C142.323 32.1382 140.01 33.4092 140.01 35.7223C140.033 36.2139 140.153 36.6961 140.366 37.1401C140.578 37.5841 140.878 37.9809 141.246 38.3069C141.615 38.6329 142.045 38.8815 142.512 39.0379C142.979 39.1943 143.472 39.2554 143.963 39.2174C144.559 39.2504 145.154 39.1242 145.685 38.8517C146.217 38.5792 146.666 38.1703 146.988 37.6668H147.064V38.9378H149.352V32.8245C149.352 30.0411 147.242 28.427 144.535 28.427L144.484 28.4016ZM144.192 37.1076C143.416 37.1076 142.336 36.7136 142.336 35.7604C142.336 34.4895 143.683 34.0573 144.878 34.0573C145.633 34.0387 146.379 34.2231 147.038 34.5911C146.959 35.2814 146.631 35.9192 146.117 36.3866C145.603 36.854 144.937 37.1192 144.242 37.133L144.192 37.1076ZM157.689 28.7702L154.969 35.6587H154.893L152.071 28.7702H149.53L153.762 38.404L151.347 43.7547H153.825L160.333 28.7702H157.689ZM136.337 38.9378H138.701V23.0509H136.337V38.9378Z" fill="white"/>
<path d="M26.7563 25.4902L13.2207 39.8519C13.3686 40.3951 13.6393 40.8971 14.012 41.319C14.3848 41.7409 14.8495 42.0715 15.3703 42.2852C15.8911 42.499 16.4541 42.5901 17.0158 42.5517C17.5774 42.5132 18.1227 42.3461 18.6095 42.0634V42.0634L33.8609 33.2684L26.7563 25.4902Z" fill="#EA4335"/>
<path d="M40.4443 23.0511L33.8608 19.2383L26.4639 25.8345L33.8862 33.2695L40.4316 29.4567C41.0134 29.1451 41.4998 28.6814 41.8389 28.1152C42.178 27.5489 42.3571 26.9012 42.3571 26.2412C42.3571 25.5812 42.178 24.9335 41.8389 24.3672C41.4998 23.801 41.0134 23.3373 40.4316 23.0257L40.4443 23.0511Z" fill="#FBBC04"/>
<path d="M13.2221 12.6035C13.1549 12.9037 13.125 13.2111 13.1331 13.5186V38.9375C13.1354 39.2552 13.1781 39.5712 13.2602 39.878L27.2407 25.8976L13.2221 12.6035Z" fill="#4285F4"/>
<path d="M26.8561 26.2272L33.859 19.2243L18.6076 10.4039C18.0346 10.0633 17.3805 9.88329 16.7139 9.88281C15.9098 9.88512 15.1288 10.1512 14.4905 10.6402C13.8523 11.1292 13.3921 11.8142 13.1807 12.5899V12.5899L26.8561 26.2272Z" fill="#34A853"/>
</svg>
