<svg width="222" height="69" viewBox="0 0 222 69" fill="none" xmlns="http://www.w3.org/2000/svg">
<path d="M84.8047 37.2914C81.7292 37.2914 78.8304 35.8379 77.1689 32.1157L73.952 25.3446V34.9871C73.952 36.2279 73.245 36.9014 72.0431 36.9014H69.3564C68.1191 36.9014 67.4475 36.2279 67.4475 34.9871V14.0006C67.4475 12.7598 68.1191 12.0862 69.3564 12.0862H72.0431C73.245 12.0862 73.952 12.7598 73.952 14.0006V23.0758L79.7496 13.3979C80.2798 12.4762 80.9868 12.0862 82.0473 12.0862H85.2289C86.7843 12.0862 87.1732 12.8307 86.2894 14.2487L80.0324 24.1039L82.825 29.4568C83.9562 31.7256 84.8401 32.2929 85.9359 32.1511C86.148 32.1157 86.5722 32.0448 86.855 31.9383C87.8096 31.6547 88.1983 32.1866 88.658 33.1792L89.0468 34.1363C89.5417 35.2707 89.2236 36.2988 87.951 36.7596C86.9611 37.1496 85.9713 37.2914 84.8047 37.2914ZM98.5148 37.2914C93.495 37.2914 89.7831 33.1792 89.7831 27.6843C89.7831 22.1896 93.495 18.0774 98.5148 18.0774C100.919 18.0774 102.934 19.07 104.1 20.9488V20.3816C104.1 19.1409 104.772 18.4673 106.009 18.4673H108.554C109.792 18.4673 110.463 19.1409 110.463 20.3816V34.9871C110.463 36.2279 109.792 36.9014 108.554 36.9014H106.009C104.772 36.9014 104.1 36.2279 104.1 34.9871V34.4554C102.934 36.2988 100.919 37.2914 98.5148 37.2914ZM100.141 32.3284C102.615 32.3284 104.171 30.3076 104.171 27.6843C104.171 25.061 102.615 23.0404 100.141 23.0404C97.631 23.0404 96.1462 25.0965 96.1462 27.6843C96.1462 30.2723 97.631 32.3284 100.141 32.3284ZM116.296 36.9014C115.059 36.9014 114.387 36.2279 114.387 34.9871V20.3816C114.387 19.1409 115.059 18.4673 116.296 18.4673H118.629C119.831 18.4673 120.538 19.1409 120.538 20.3816V22.4377C121.139 18.8573 123.932 18.0774 125.204 18.0774C125.24 18.0774 125.664 18.0774 125.735 18.1128C126.654 18.1128 126.83 18.8927 126.83 19.5663V22.7568C126.83 23.8203 126.265 24.2811 125.452 24.1748C125.134 24.1393 124.886 24.1393 124.603 24.1393C122.058 24.1393 120.75 25.8409 120.75 29.1379V34.9871C120.75 36.2279 120.079 36.9014 118.841 36.9014H116.296ZM138.253 37.2914C132.208 37.2914 127.859 33.0019 127.859 27.6843C127.859 22.3668 132.208 18.0774 138.253 18.0774C144.333 18.0774 148.645 22.3668 148.645 27.6843C148.645 33.0019 144.333 37.2914 138.253 37.2914ZM138.253 32.2575C140.798 32.2575 142.707 30.3076 142.707 27.6843C142.707 25.061 140.798 23.1467 138.253 23.1467C135.707 23.1467 133.834 25.0965 133.834 27.6843C133.834 30.2723 135.707 32.2575 138.253 32.2575ZM160.831 37.2914C154.786 37.2914 150.437 33.0019 150.437 27.6843C150.437 22.3668 154.786 18.0774 160.831 18.0774C166.911 18.0774 171.223 22.3668 171.223 27.6843C171.223 33.0019 166.911 37.2914 160.831 37.2914ZM160.831 32.2575C163.376 32.2575 165.284 30.3076 165.284 27.6843C165.284 25.061 163.376 23.1467 160.831 23.1467C158.286 23.1467 156.411 25.0965 156.411 27.6843C156.411 30.2723 158.286 32.2575 160.831 32.2575ZM181.754 37.2914C178.573 37.2914 175.073 35.9088 175.073 30.6621V23.1467H173.411C172.776 23.1467 172.422 22.7922 172.422 22.1541V19.4599C172.422 18.8218 172.776 18.4673 173.411 18.4673H175.639L176.276 14.9931C176.381 14.1778 176.912 13.7879 177.725 13.7879H179.952C180.836 13.7879 181.295 14.2487 181.295 15.0996V18.4673H185.007C185.644 18.4673 185.996 18.8218 185.996 19.4599V22.1541C185.996 22.7922 185.644 23.1467 185.007 23.1467H181.295V30.7686C181.295 31.8674 181.826 32.2928 182.461 32.2928C183.31 32.2928 183.734 31.5485 183.734 30.733C183.734 30.5559 183.734 30.3432 183.699 30.1305C183.629 29.4568 183.84 29.1023 184.512 29.1023H186.881C187.41 29.1023 187.835 29.315 187.976 29.8469C188.154 30.3432 188.189 30.8748 188.224 31.2649C188.224 35.8025 185.007 37.2914 181.754 37.2914ZM199.771 37.2914C193.727 37.2914 189.378 33.0019 189.378 27.6843C189.378 22.3668 193.727 18.0774 199.771 18.0774C205.851 18.0774 210.165 22.3668 210.165 27.6843C210.165 33.0019 205.851 37.2914 199.771 37.2914ZM199.771 32.2575C202.316 32.2575 204.226 30.3076 204.226 27.6843C204.226 25.061 202.316 23.1467 199.771 23.1467C197.226 23.1467 195.352 25.0965 195.352 27.6843C195.352 30.2723 197.226 32.2575 199.771 32.2575Z" fill="white"/>
<path d="M4.92899 36.7321C4.92899 51.7522 17.0709 63.9281 32.0485 63.9281C37.0539 63.9281 41.7416 62.5666 45.7661 60.1953C44.3203 59.4998 42.9154 58.7218 41.547 57.8683C41.2695 57.6957 41.231 57.5197 41.329 57.2207C41.8485 55.6368 42.4742 54.1011 43.2961 52.6486C43.4316 52.41 43.5369 52.1554 43.6564 51.9077C43.6191 51.8858 43.583 51.8636 43.5458 51.8418C42.129 53.3008 41.0269 54.9984 39.9936 56.7389C39.9254 56.7179 39.8821 56.7155 39.8528 56.6951C39.5452 56.474 39.2368 56.2549 38.9356 56.0263C36.6586 54.2944 34.6154 52.32 32.7984 50.107C32.6214 49.8912 32.5984 49.7065 32.7278 49.4708C33.0115 48.9554 33.2697 48.4256 33.5655 47.918C34.8534 45.7131 36.4218 43.733 38.3048 42.0074C38.4128 41.9083 38.4971 41.7824 38.5919 41.6686C38.5636 41.6367 38.5341 41.6045 38.5056 41.5724C37.0781 42.3238 35.8015 43.3073 34.6142 44.3891C33.4166 45.4805 32.3082 46.6719 31.16 47.8212C31.1567 47.8183 31.1339 47.8036 31.1186 47.7831C31.0797 47.7306 31.0395 47.6784 31.0072 47.6218C29.325 44.7184 28.7565 41.6396 29.6469 38.3665C30.1902 36.3672 31.203 34.6513 32.9588 33.4672C33.3146 33.2276 33.6771 33.0322 34.0454 32.8808C35.3343 32.3512 36.6943 32.3612 38.0778 32.8895C38.8321 33.1778 39.5715 33.6105 40.1883 34.1316C41.0389 34.8491 41.8262 35.6642 42.5328 36.5263C43.7658 38.0308 44.5879 39.7962 45.4584 41.5244C45.5014 41.6093 45.4706 41.7813 45.4092 41.8644C44.4352 43.1877 43.4431 44.497 42.4746 45.8238C42.288 46.0793 42.1812 46.3943 42.0373 46.6819C42.0815 46.712 42.1249 46.7418 42.1685 46.7716C43.4141 45.4033 44.7382 44.1226 46.2489 43.0176C46.3775 43.1892 46.508 43.3365 46.6082 43.5014C47.9051 45.6308 49.4222 47.5895 51.1361 49.3942C51.3281 49.5962 51.3493 49.7369 51.2228 49.9695C50.7796 50.7836 50.3388 51.6003 49.9302 52.4318C49.7475 52.8047 49.6408 53.2167 49.4997 53.6107C49.5354 53.6294 49.5715 53.6481 49.607 53.6668C50.449 52.5937 51.2913 51.5212 52.1517 50.4244C52.8562 51.0822 53.571 51.699 54.2964 52.285C57.3661 47.8777 59.1682 42.5163 59.1682 36.7321C59.1682 21.7123 47.0263 9.53644 32.0485 9.53644C17.0709 9.53644 4.92899 21.7123 4.92899 36.7321ZM31.4492 21.7958C31.4578 21.7834 31.4669 21.7718 31.4762 21.7597C31.4829 21.7787 31.4893 21.7971 31.4953 21.8163L31.4492 21.7958ZM31.4953 21.8163L31.496 21.8167L31.4957 21.8173C31.496 21.8167 31.496 21.8167 31.4953 21.8163ZM29.3989 27.7554C29.3546 25.6591 29.9922 23.7771 31.2398 22.1459L31.2858 22.1666C31.2864 22.167 31.2864 22.167 31.2861 22.1677C31.4731 22.7111 31.6392 23.2587 31.8541 23.7859C32.0784 24.3348 32.364 24.8583 32.6055 25.4001C32.8627 25.976 33.1346 26.5485 33.3403 27.1429C34.1012 29.3398 33.5678 31.406 31.5392 33.4486C30.1619 31.7957 29.4434 29.8956 29.3989 27.7554ZM20.6851 31.9735C19.9998 31.2612 19.3916 30.4715 18.7684 29.7C18.1823 28.9746 17.6525 28.2005 17.0436 27.4946C16.4586 26.8169 15.8103 26.1941 15.1825 25.5442C15.1813 25.5442 15.1813 25.5442 15.1813 25.543L15.1852 25.4635C18.3552 24.8679 21.4427 25.3082 24.3457 26.8615C27.3093 28.4461 29.4578 30.8087 30.7921 33.9227C29.3461 34.3942 28.0165 34.6262 26.7924 34.6262C24.3744 34.6262 22.3675 33.7217 20.6851 31.9735Z" fill="#B9C700"/>
<path d="M68.5612 52.8587H71.6155V53.5883H68.5612V52.8587ZM68.6459 55.9894H67.7998V50.0504H71.9792V50.7885H68.6459V55.9894ZM75.4228 55.9894V51.4927H76.2011V52.7145L76.125 52.409C76.249 52.0979 76.4576 51.8604 76.7509 51.6964C77.0442 51.5323 77.4053 51.4503 77.8339 51.4503V52.2393C77.8001 52.2337 77.7663 52.2308 77.7324 52.2308C77.7042 52.2308 77.676 52.2308 77.6477 52.2308C77.2135 52.2308 76.8694 52.3609 76.6156 52.6211C76.3618 52.8813 76.2349 53.2575 76.2349 53.7495V55.9894H75.4228ZM83.233 56.0403C82.8495 56.0403 82.5111 55.9697 82.2178 55.8282C81.9301 55.6868 81.7046 55.4719 81.541 55.1833C81.383 54.8892 81.3041 54.5217 81.3041 54.0805V51.4927H82.1162V53.9871C82.1162 54.4283 82.2206 54.7593 82.4294 54.9799C82.6437 55.2004 82.9425 55.3107 83.326 55.3107C83.6081 55.3107 83.8535 55.2541 84.0622 55.141C84.2708 55.0222 84.4316 54.8525 84.5444 54.6319C84.6573 54.4056 84.7137 54.1342 84.7137 53.8174V51.4927H85.5258V55.9894H84.7559V54.7762L84.8828 55.0986C84.7361 55.3984 84.5161 55.6302 84.2228 55.7943C83.9295 55.9583 83.5997 56.0403 83.233 56.0403ZM89.5256 55.9894V51.4927H90.3377V55.9894H89.5256ZM89.9317 50.6273C89.7737 50.6273 89.6412 50.5764 89.5341 50.4747C89.4325 50.3728 89.3817 50.2484 89.3817 50.1013C89.3817 49.9486 89.4325 49.8214 89.5341 49.7195C89.6412 49.6177 89.7737 49.5669 89.9317 49.5669C90.0896 49.5669 90.2194 49.6177 90.3208 49.7195C90.428 49.8157 90.4816 49.9373 90.4816 50.0844C90.4816 50.2371 90.4309 50.3672 90.3293 50.4747C90.2278 50.5764 90.0953 50.6273 89.9317 50.6273ZM95.8819 56.0403C95.4307 56.0403 95.081 55.9187 94.8328 55.6756C94.5846 55.4323 94.4606 55.0844 94.4606 54.6319V50.5086H95.2727V54.598C95.2727 54.8413 95.332 55.0278 95.4504 55.1579C95.5745 55.288 95.7494 55.3531 95.9749 55.3531C96.2289 55.3531 96.4404 55.2825 96.6095 55.141L96.8633 55.7264C96.7392 55.8339 96.5898 55.9131 96.4149 55.964C96.2458 56.0149 96.0681 56.0403 95.8819 56.0403ZM93.6991 52.163V51.4927H96.5588V52.163H93.6991ZM101.585 56.0403C101.213 56.0403 100.857 55.9894 100.519 55.8877C100.186 55.7858 99.9237 55.6614 99.732 55.5143L100.07 54.8695C100.262 54.9996 100.499 55.1098 100.781 55.2004C101.063 55.2909 101.351 55.3361 101.644 55.3361C102.022 55.3361 102.293 55.2825 102.456 55.1749C102.625 55.0674 102.71 54.9176 102.71 54.7252C102.71 54.5838 102.659 54.4736 102.558 54.3944C102.456 54.3151 102.321 54.2558 102.152 54.2162C101.988 54.1766 101.805 54.1426 101.602 54.1144C101.399 54.0805 101.196 54.0409 100.993 53.9956C100.789 53.9447 100.603 53.8769 100.434 53.7919C100.265 53.7015 100.13 53.5798 100.028 53.4272C99.9266 53.2687 99.8758 53.0596 99.8758 52.7993C99.8758 52.5279 99.952 52.2903 100.104 52.0867C100.257 51.883 100.471 51.7275 100.747 51.62C101.029 51.5069 101.362 51.4503 101.746 51.4503C102.039 51.4503 102.335 51.4872 102.634 51.5607C102.939 51.6285 103.187 51.7275 103.378 51.8576L103.032 52.5024C102.828 52.3666 102.617 52.2734 102.397 52.2223C102.177 52.1715 101.957 52.146 101.737 52.146C101.382 52.146 101.117 52.2054 100.942 52.3242C100.767 52.4374 100.68 52.5844 100.68 52.7654C100.68 52.918 100.73 53.0369 100.832 53.1217C100.939 53.2009 101.074 53.2632 101.238 53.3084C101.407 53.3537 101.593 53.3933 101.796 53.4272C101.999 53.4554 102.202 53.495 102.405 53.5459C102.608 53.5912 102.792 53.6563 102.955 53.7411C103.125 53.8259 103.26 53.9447 103.362 54.0975C103.469 54.2501 103.522 54.4537 103.522 54.7082C103.522 54.9799 103.443 55.2145 103.285 55.4124C103.127 55.6105 102.905 55.766 102.617 55.8792C102.329 55.9866 101.985 56.0403 101.585 56.0403ZM114.5 55.9894V55.0392L114.458 54.861V53.2405C114.458 52.8955 114.356 52.6296 114.153 52.4429C113.956 52.2507 113.657 52.1545 113.256 52.1545C112.991 52.1545 112.732 52.1998 112.478 52.2903C112.224 52.3751 112.01 52.491 111.835 52.6381L111.496 52.0273C111.728 51.8406 112.004 51.6991 112.326 51.6031C112.653 51.5012 112.994 51.4503 113.349 51.4503C113.964 51.4503 114.438 51.6002 114.771 51.9C115.104 52.1998 115.27 52.658 115.27 53.2744V55.9894H114.5ZM113.028 56.0403C112.695 56.0403 112.402 55.9837 112.148 55.8706C111.9 55.7576 111.708 55.602 111.573 55.4039C111.437 55.2004 111.37 54.9714 111.37 54.7167C111.37 54.4736 111.426 54.253 111.539 54.0549C111.657 53.857 111.846 53.6987 112.106 53.5798C112.371 53.4611 112.726 53.4018 113.172 53.4018H114.593V53.9871H113.206C112.799 53.9871 112.526 54.0549 112.385 54.1907C112.244 54.3265 112.173 54.4906 112.173 54.6828C112.173 54.9034 112.261 55.0816 112.436 55.2174C112.611 55.3475 112.853 55.4124 113.163 55.4124C113.468 55.4124 113.733 55.3446 113.958 55.2089C114.19 55.0731 114.356 54.8752 114.458 54.615L114.618 55.1749C114.511 55.4408 114.322 55.6529 114.052 55.8112C113.781 55.964 113.44 56.0403 113.028 56.0403ZM121.621 51.4503C121.987 51.4503 122.309 51.5211 122.585 51.6624C122.867 51.8038 123.087 52.0188 123.245 52.3073C123.403 52.5957 123.482 52.9606 123.482 53.4018V55.9894H122.67V53.495C122.67 53.0596 122.563 52.7315 122.348 52.5109C122.14 52.2903 121.844 52.1799 121.46 52.1799C121.172 52.1799 120.921 52.2365 120.707 52.3497C120.493 52.4628 120.326 52.6296 120.208 52.8502C120.095 53.0708 120.039 53.3452 120.039 53.6732V55.9894H119.227V51.4927H120.005V52.7061L119.878 52.3836C120.025 52.0895 120.25 51.8604 120.555 51.6964C120.859 51.5323 121.215 51.4503 121.621 51.4503ZM129.292 56.0403C128.857 56.0403 128.468 55.9441 128.124 55.7519C127.786 55.5595 127.518 55.2909 127.32 54.9458C127.123 54.6008 127.024 54.1992 127.024 53.7411C127.024 53.2829 127.123 52.8841 127.32 52.5448C127.518 52.1998 127.786 51.9311 128.124 51.7388C128.468 51.5465 128.857 51.4503 129.292 51.4503C129.67 51.4503 130.011 51.5351 130.315 51.7048C130.62 51.8746 130.862 52.1291 131.043 52.4685C131.229 52.8078 131.322 53.232 131.322 53.7411C131.322 54.2501 131.232 54.6743 131.051 55.0138C130.877 55.3531 130.637 55.6105 130.332 55.7858C130.028 55.9555 129.681 56.0403 129.292 56.0403ZM129.359 55.3276C129.641 55.3276 129.895 55.2626 130.121 55.1325C130.352 55.0024 130.533 54.8186 130.662 54.5811C130.798 54.3378 130.865 54.0579 130.865 53.7411C130.865 53.4187 130.798 53.1416 130.662 52.9096C130.533 52.672 130.352 52.4883 130.121 52.3581C129.895 52.228 129.641 52.163 129.359 52.163C129.072 52.163 128.815 52.228 128.589 52.3581C128.364 52.4883 128.183 52.672 128.048 52.9096C127.913 53.1416 127.845 53.4187 127.845 53.7411C127.845 54.0579 127.913 54.3378 128.048 54.5811C128.183 54.8186 128.364 55.0024 128.589 55.1325C128.815 55.2626 129.072 55.3276 129.359 55.3276ZM130.891 55.9894V54.7762L130.941 53.7326L130.857 52.689V49.694H131.669V55.9894H130.891ZM142.212 55.9894L139.607 50.0504H140.52L142.915 55.5313H142.39L144.801 50.0504H145.647L143.05 55.9894H142.212ZM150.396 56.0403C149.917 56.0403 149.494 55.9413 149.127 55.7434C148.765 55.5454 148.484 55.274 148.281 54.9288C148.083 54.5838 147.985 54.188 147.985 53.7411C147.985 53.2942 148.08 52.8983 148.272 52.5533C148.469 52.2083 148.737 51.9396 149.075 51.7472C149.42 51.5493 149.806 51.4503 150.234 51.4503C150.669 51.4503 151.052 51.5465 151.386 51.7388C151.718 51.9311 151.978 52.2026 152.164 52.5533C152.355 52.8983 152.452 53.3028 152.452 53.7665C152.452 53.8004 152.449 53.84 152.443 53.8854C152.443 53.9305 152.44 53.9729 152.434 54.0125H148.619V53.4272H152.011L151.682 53.6308C151.688 53.3423 151.628 53.085 151.504 52.8587C151.38 52.6325 151.208 52.4571 150.988 52.3327C150.774 52.2026 150.523 52.1376 150.234 52.1376C149.953 52.1376 149.702 52.2026 149.482 52.3327C149.262 52.4571 149.09 52.6353 148.966 52.8672C148.842 53.0935 148.78 53.3537 148.78 53.6478V53.7835C148.78 54.0833 148.848 54.352 148.982 54.5895C149.124 54.8214 149.319 55.0024 149.567 55.1325C149.815 55.2626 150.099 55.3276 150.421 55.3276C150.686 55.3276 150.925 55.2825 151.14 55.1918C151.36 55.1013 151.552 54.9657 151.715 54.7847L152.164 55.3107C151.96 55.5482 151.707 55.7292 151.402 55.8536C151.103 55.9782 150.768 56.0403 150.396 56.0403ZM157.996 57.6862C157.584 57.6862 157.184 57.6269 156.794 57.5081C156.411 57.395 156.098 57.231 155.856 57.0161L156.245 56.3882C156.453 56.5692 156.71 56.7106 157.014 56.8124C157.319 56.9199 157.637 56.9735 157.971 56.9735C158.5 56.9735 158.889 56.8491 159.138 56.6003C159.386 56.3514 159.51 55.9725 159.51 55.4634V54.5132L159.595 53.6224L159.552 52.723V51.4927H160.322V55.3785C160.322 56.1704 160.125 56.753 159.73 57.1263C159.335 57.4997 158.757 57.6862 157.996 57.6862ZM157.894 55.8027C157.461 55.8027 157.071 55.7122 156.727 55.5313C156.388 55.3446 156.118 55.0873 155.914 54.7593C155.717 54.4311 155.618 54.0522 155.618 53.6224C155.618 53.1867 155.717 52.8078 155.914 52.4855C156.118 52.1573 156.388 51.9028 156.727 51.7218C157.071 51.5408 157.461 51.4503 157.894 51.4503C158.278 51.4503 158.627 51.5296 158.943 51.6879C159.259 51.8406 159.51 52.0782 159.697 52.4005C159.888 52.723 159.984 53.1302 159.984 53.6224C159.984 54.1087 159.888 54.5132 159.697 54.8356C159.51 55.1579 159.259 55.4012 158.943 55.5652C158.627 55.7235 158.278 55.8027 157.894 55.8027ZM157.987 55.0901C158.286 55.0901 158.551 55.0278 158.783 54.9034C159.015 54.779 159.194 54.6065 159.324 54.3859C159.459 54.1653 159.528 53.9108 159.528 53.6224C159.528 53.3338 159.459 53.0793 159.324 52.8587C159.194 52.6381 159.015 52.4685 158.783 52.3497C158.551 52.2253 158.286 52.163 157.987 52.163C157.688 52.163 157.42 52.2253 157.184 52.3497C156.952 52.4685 156.77 52.6381 156.634 52.8587C156.504 53.0793 156.439 53.3338 156.439 53.6224C156.439 53.9108 156.504 54.1653 156.634 54.3859C156.77 54.6065 156.952 54.779 157.184 54.9034C157.42 55.0278 157.688 55.0901 157.987 55.0901ZM166.324 56.0403C165.846 56.0403 165.421 55.9413 165.056 55.7434C164.694 55.5454 164.413 55.274 164.21 54.9288C164.012 54.5838 163.913 54.188 163.913 53.7411C163.913 53.2942 164.009 52.8983 164.201 52.5533C164.398 52.2083 164.666 51.9396 165.005 51.7472C165.349 51.5493 165.735 51.4503 166.163 51.4503C166.598 51.4503 166.981 51.5465 167.315 51.7388C167.647 51.9311 167.907 52.2026 168.092 52.5533C168.284 52.8983 168.381 53.3028 168.381 53.7665C168.381 53.8004 168.378 53.84 168.372 53.8854C168.372 53.9305 168.369 53.9729 168.363 54.0125H164.548V53.4272H167.94L167.611 53.6308C167.617 53.3423 167.557 53.085 167.433 52.8587C167.309 52.6325 167.137 52.4571 166.917 52.3327C166.703 52.2026 166.452 52.1376 166.163 52.1376C165.882 52.1376 165.631 52.2026 165.411 52.3327C165.191 52.4571 165.019 52.6353 164.895 52.8672C164.771 53.0935 164.709 53.3537 164.709 53.6478V53.7835C164.709 54.0833 164.776 54.352 164.911 54.5895C165.053 54.8214 165.246 55.0024 165.496 55.1325C165.744 55.2626 166.028 55.3276 166.35 55.3276C166.615 55.3276 166.854 55.2825 167.069 55.1918C167.289 55.1013 167.481 54.9657 167.645 54.7847L168.092 55.3107C167.889 55.5482 167.636 55.7292 167.331 55.8536C167.032 55.9782 166.697 56.0403 166.324 56.0403ZM173.502 56.0403C173.05 56.0403 172.7 55.9187 172.452 55.6756C172.204 55.4323 172.08 55.0844 172.08 54.6319V50.5086H172.892V54.598C172.892 54.8413 172.952 55.0278 173.07 55.1579C173.194 55.288 173.369 55.3531 173.595 55.3531C173.849 55.3531 174.06 55.2825 174.229 55.141L174.483 55.7264C174.359 55.8339 174.209 55.9131 174.034 55.964C173.865 56.0149 173.688 56.0403 173.502 56.0403ZM171.318 52.163V51.4927H174.178V52.163H171.318ZM180.702 55.9894V55.0392L180.659 54.861V53.2405C180.659 52.8955 180.559 52.6296 180.355 52.4429C180.158 52.2507 179.859 52.1545 179.458 52.1545C179.193 52.1545 178.933 52.1998 178.68 52.2903C178.426 52.3751 178.212 52.491 178.037 52.6381L177.699 52.0273C177.929 51.8406 178.206 51.6991 178.528 51.6031C178.855 51.5012 179.196 51.4503 179.552 51.4503C180.167 51.4503 180.64 51.6002 180.973 51.9C181.305 52.1998 181.471 52.658 181.471 53.2744V55.9894H180.702ZM179.229 56.0403C178.897 56.0403 178.604 55.9837 178.35 55.8706C178.101 55.7576 177.91 55.602 177.775 55.4039C177.639 55.2004 177.572 54.9714 177.572 54.7167C177.572 54.4736 177.627 54.253 177.741 54.0549C177.859 53.857 178.049 53.6987 178.308 53.5798C178.573 53.4611 178.928 53.4018 179.374 53.4018H180.795V53.9871H179.407C179.002 53.9871 178.728 54.0549 178.586 54.1907C178.447 54.3265 178.375 54.4906 178.375 54.6828C178.375 54.9034 178.463 55.0816 178.638 55.2174C178.812 55.3475 179.054 55.4124 179.365 55.4124C179.67 55.4124 179.935 55.3446 180.161 55.2089C180.391 55.0731 180.559 54.8752 180.659 54.615L180.82 55.1749C180.713 55.4408 180.524 55.6529 180.254 55.8112C179.983 55.964 179.642 56.0403 179.229 56.0403ZM187.805 56.0403C187.422 56.0403 187.075 55.9555 186.765 55.7858C186.461 55.6105 186.218 55.3531 186.037 55.0138C185.862 54.6743 185.775 54.2501 185.775 53.7411C185.775 53.232 185.865 52.8078 186.046 52.4685C186.232 52.1291 186.477 51.8746 186.782 51.7048C187.093 51.5351 187.434 51.4503 187.805 51.4503C188.246 51.4503 188.635 51.5465 188.973 51.7388C189.311 51.9311 189.58 52.1998 189.778 52.5448C189.975 52.8841 190.074 53.2829 190.074 53.7411C190.074 54.1992 189.975 54.6008 189.778 54.9458C189.58 55.2909 189.311 55.5595 188.973 55.7519C188.635 55.9441 188.246 56.0403 187.805 56.0403ZM185.428 55.9894V49.694H186.241V52.689L186.157 53.7326L186.206 54.7762V55.9894H185.428ZM187.738 55.3276C188.026 55.3276 188.282 55.2626 188.508 55.1325C188.74 55.0024 188.919 54.8186 189.049 54.5811C189.184 54.3378 189.253 54.0579 189.253 53.7411C189.253 53.4187 189.184 53.1416 189.049 52.9096C188.919 52.672 188.74 52.4883 188.508 52.3581C188.282 52.228 188.026 52.163 187.738 52.163C187.456 52.163 187.199 52.228 186.969 52.3581C186.743 52.4883 186.562 52.672 186.426 52.9096C186.297 53.1416 186.232 53.4187 186.232 53.7411C186.232 54.0579 186.297 54.3378 186.426 54.5811C186.562 54.8186 186.743 55.0024 186.969 55.1325C187.199 55.2626 187.456 55.3276 187.738 55.3276ZM193.65 55.9894V49.694H194.462V55.9894H193.65ZM200.462 56.0403C199.982 56.0403 199.559 55.9413 199.193 55.7434C198.832 55.5454 198.551 55.274 198.347 54.9288C198.15 54.5838 198.051 54.188 198.051 53.7411C198.051 53.2942 198.147 52.8983 198.339 52.5533C198.536 52.2083 198.804 51.9396 199.142 51.7472C199.486 51.5493 199.873 51.4503 200.301 51.4503C200.736 51.4503 201.119 51.5465 201.452 51.7388C201.785 51.9311 202.045 52.2026 202.23 52.5533C202.422 52.8983 202.519 53.3028 202.519 53.7665C202.519 53.8004 202.516 53.84 202.51 53.8854C202.51 53.9305 202.507 53.9729 202.501 54.0125H198.686V53.4272H202.078L201.747 53.6308C201.753 53.3423 201.695 53.085 201.571 52.8587C201.446 52.6325 201.274 52.4571 201.055 52.3327C200.841 52.2026 200.589 52.1376 200.301 52.1376C200.02 52.1376 199.768 52.2026 199.549 52.3327C199.329 52.4571 199.157 52.6353 199.032 52.8672C198.908 53.0935 198.847 53.3537 198.847 53.6478V53.7835C198.847 54.0833 198.914 54.352 199.049 54.5895C199.191 54.8214 199.384 55.0024 199.634 55.1325C199.882 55.2626 200.166 55.3276 200.488 55.3276C200.753 55.3276 200.992 55.2825 201.207 55.1918C201.427 55.1013 201.619 54.9657 201.782 54.7847L202.23 55.3107C202.027 55.5482 201.774 55.7292 201.469 55.8536C201.17 55.9782 200.835 56.0403 200.462 56.0403ZM207.386 56.0403C207.013 56.0403 206.657 55.9894 206.319 55.8877C205.987 55.7858 205.724 55.6614 205.533 55.5143L205.872 54.8695C206.062 54.9996 206.3 55.1098 206.581 55.2004C206.864 55.2909 207.151 55.3361 207.444 55.3361C207.822 55.3361 208.093 55.2825 208.256 55.1749C208.426 55.0674 208.51 54.9176 208.51 54.7252C208.51 54.5838 208.46 54.4736 208.358 54.3944C208.256 54.3151 208.121 54.2558 207.952 54.2162C207.788 54.1766 207.605 54.1426 207.402 54.1144C207.2 54.0805 206.997 54.0409 206.793 53.9956C206.59 53.9447 206.404 53.8769 206.234 53.7919C206.065 53.7015 205.93 53.5798 205.829 53.4272C205.727 53.2687 205.676 53.0596 205.676 52.7993C205.676 52.5279 205.752 52.2903 205.905 52.0867C206.057 51.883 206.271 51.7275 206.548 51.62C206.829 51.5069 207.163 51.4503 207.546 51.4503C207.839 51.4503 208.135 51.4872 208.434 51.5607C208.739 51.6285 208.987 51.7275 209.179 51.8576L208.832 52.5024C208.63 52.3666 208.418 52.2734 208.198 52.2223C207.978 52.1715 207.758 52.146 207.538 52.146C207.182 52.146 206.917 52.2054 206.742 52.3242C206.568 52.4374 206.481 52.5844 206.481 52.7654C206.481 52.918 206.53 53.0369 206.632 53.1217C206.74 53.2009 206.874 53.2632 207.039 53.3084C207.208 53.3537 207.393 53.3933 207.597 53.4272C207.8 53.4554 208.003 53.495 208.207 53.5459C208.409 53.5912 208.593 53.6563 208.756 53.7411C208.926 53.8259 209.061 53.9447 209.162 54.0975C209.27 54.2501 209.324 54.4537 209.324 54.7082C209.324 54.9799 209.243 55.2145 209.086 55.4124C208.928 55.6105 208.705 55.766 208.418 55.8792C208.13 55.9866 207.786 56.0403 207.386 56.0403Z" fill="#E9E9E9"/>
</svg>
