<svg width="30" height="30" viewBox="0 0 30 30" fill="none" xmlns="http://www.w3.org/2000/svg">
<path d="M16.2476 8.75H13.7524C10.165 8.75 7.74626 12.5864 9.15941 16.035C9.35626 16.5155 9.80791 16.8269 10.3077 16.8269H11.1864C11.4826 16.8269 11.7407 17.0377 11.8126 17.3382L12.9439 22.0709C13.1798 23.0578 14.0275 23.75 15 23.75C15.9725 23.75 16.8203 23.0578 17.0561 22.0709L18.1874 17.3382C18.2593 17.0377 18.5175 16.8269 18.8136 16.8269H19.6924C20.1921 16.8269 20.6438 16.5155 20.8406 16.035C22.2538 12.5864 19.835 8.75 16.2476 8.75Z" stroke="#B9C700" stroke-width="1.5"/>
<path d="M18.125 5.625C18.125 7.35089 16.7259 8.75 15 8.75C13.2741 8.75 11.875 7.35089 11.875 5.625C11.875 3.89911 13.2741 2.5 15 2.5C16.7259 2.5 18.125 3.89911 18.125 5.625Z" stroke="#B9C700" stroke-width="1.5"/>
<path d="M23.75 23.75C23.75 25.8211 19.8325 27.5 15 27.5C10.1675 27.5 6.25 25.8211 6.25 23.75" stroke="#B9C700" stroke-width="1.5" stroke-linecap="round"/>
</svg>
