<svg width="20" height="20" viewBox="0 0 20 20" fill="none" xmlns="http://www.w3.org/2000/svg">
<path d="M10.8318 5.83333H9.16829C6.77667 5.83333 5.16422 8.39092 6.10632 10.69C6.23755 11.0103 6.53865 11.2179 6.87181 11.2179H7.45762C7.65508 11.2179 7.8272 11.3585 7.87509 11.5588L8.62929 14.7139C8.78654 15.3718 9.35171 15.8333 10 15.8333C10.6484 15.8333 11.2135 15.3718 11.3708 14.7139L12.125 11.5588C12.1729 11.3585 12.345 11.2179 12.5425 11.2179H13.1283C13.4615 11.2179 13.7625 11.0103 13.8938 10.69C14.8359 8.39092 13.2234 5.83333 10.8318 5.83333Z" stroke="#072506"/>
<path d="M12.0833 3.75C12.0833 4.90059 11.1505 5.83333 9.99996 5.83333C8.84938 5.83333 7.91663 4.90059 7.91663 3.75C7.91663 2.59941 8.84938 1.66667 9.99996 1.66667C11.1505 1.66667 12.0833 2.59941 12.0833 3.75Z" stroke="#072506"/>
<path d="M15.8333 15.8333C15.8333 17.2141 13.2216 18.3333 9.99996 18.3333C6.7783 18.3333 4.16663 17.2141 4.16663 15.8333" stroke="#072506" stroke-linecap="round"/>
</svg>
