<svg width="20" height="20" viewBox="0 0 20 20" fill="none" xmlns="http://www.w3.org/2000/svg">
<path d="M6.66667 13.3334H12.7193C16.459 13.3334 17.0277 10.984 17.7175 7.55759C17.9165 6.56928 18.016 6.07513 17.7767 5.74591C17.5375 5.41669 17.0789 5.41669 16.1617 5.41669H5" stroke="#6DA117" stroke-width="1.5" stroke-linecap="round"/>
<path d="M6.66666 13.3334L4.48227 2.92913C4.29679 2.18718 3.63014 1.66669 2.86537 1.66669H2.08333" stroke="#6DA117" stroke-width="1.5" stroke-linecap="round"/>
<path d="M7.4 13.3333H7.05714C5.92102 13.3333 5 14.2927 5 15.4761C5 15.6734 5.1535 15.8333 5.34286 15.8333H14.5833" stroke="#6DA117" stroke-width="1.5" stroke-linecap="round" stroke-linejoin="round"/>
<path d="M8.75 18.3333C9.44036 18.3333 10 17.7737 10 17.0833C10 16.393 9.44036 15.8333 8.75 15.8333C8.05964 15.8333 7.5 16.393 7.5 17.0833C7.5 17.7737 8.05964 18.3333 8.75 18.3333Z" stroke="#6DA117" stroke-width="1.5"/>
<path d="M14.5833 18.3333C15.2737 18.3333 15.8333 17.7737 15.8333 17.0833C15.8333 16.393 15.2737 15.8333 14.5833 15.8333C13.893 15.8333 13.3333 16.393 13.3333 17.0833C13.3333 17.7737 13.893 18.3333 14.5833 18.3333Z" stroke="#6DA117" stroke-width="1.5"/>
</svg>
