<svg width="16" height="16" viewBox="0 0 16 16" fill="none" xmlns="http://www.w3.org/2000/svg">
<path d="M9.15173 2.2961L10.3249 4.6619C10.4849 4.99122 10.9115 5.30711 11.2715 5.3676L13.3979 5.72381C14.7578 5.95233 15.0778 6.94704 14.0979 7.92831L12.4447 9.59511C12.1647 9.87738 12.0115 10.4218 12.0981 10.8116L12.5714 12.875C12.9447 14.5082 12.0847 15.14 10.6516 14.2864L8.65846 13.0968C8.29853 12.8817 7.70526 12.8817 7.33859 13.0968L5.34551 14.2864C3.91899 15.14 3.05243 14.5014 3.42572 12.875L3.899 10.8116C3.98565 10.4218 3.83234 9.87738 3.55237 9.59511L1.89922 7.92831C0.925994 6.94704 1.23929 5.95233 2.59914 5.72381L4.72557 5.3676C5.07887 5.30711 5.50549 4.99122 5.66547 4.6619L6.83866 2.2961C7.47859 1.01238 8.51846 1.01238 9.15173 2.2961Z" fill="#FBB400" stroke="#FBB400" stroke-width="1.5" stroke-linecap="round" stroke-linejoin="round"/>
</svg>
