<svg width="16" height="16" viewBox="0 0 16 16" fill="none" xmlns="http://www.w3.org/2000/svg">
<g clip-path="url(#clip0_1211_1749)">
<path fill-rule="evenodd" clip-rule="evenodd" d="M14.2602 2.74896C14.9455 2.93353 15.4859 3.47381 15.6703 4.15923C16.0131 5.41118 15.9999 8.02079 15.9999 8.02079C15.9999 8.02079 15.9999 10.6171 15.6705 11.8692C15.4859 12.5545 14.9456 13.0949 14.2602 13.2793C13.0081 13.6089 7.99997 13.6089 7.99997 13.6089C7.99997 13.6089 3.00487 13.6089 1.73974 13.2663C1.05432 13.0817 0.514036 12.5413 0.329466 11.856C0 10.6171 0 8.00761 0 8.00761C0 8.00761 0 5.41118 0.329466 4.15923C0.513914 3.47393 1.0675 2.92035 1.73962 2.7359C2.99169 2.40631 7.99984 2.40631 7.99984 2.40631C7.99984 2.40631 13.0081 2.40631 14.2602 2.74896ZM10.5698 8.00757L6.40508 10.4062V5.60889L10.5698 8.00757Z" fill="#48660E"/>
</g>
<defs>
<clipPath id="clip0_1211_1749">
<rect width="16" height="16" fill="white"/>
</clipPath>
</defs>
</svg>
