<svg width="44" height="44" viewBox="0 0 44 44" fill="none" xmlns="http://www.w3.org/2000/svg">
<rect width="44" height="44" rx="5" fill="white" fill-opacity="0.1"/>
<g clip-path="url(#clip0_316_2614)">
<path fill-rule="evenodd" clip-rule="evenodd" d="M29.8252 15.4362C30.6819 15.6669 31.3574 16.3422 31.5879 17.199C32.0164 18.764 31.9999 22.026 31.9999 22.026C31.9999 22.026 31.9999 25.2713 31.5881 26.8364C31.3574 27.6931 30.682 28.3686 29.8252 28.5991C28.2602 29.0111 22 29.0111 22 29.0111C22 29.0111 15.7561 29.0111 14.1747 28.5828C13.3179 28.3521 12.6425 27.6766 12.4118 26.82C12 25.2713 12 22.0095 12 22.0095C12 22.0095 12 18.764 12.4118 17.199C12.6424 16.3424 13.3344 15.6504 14.1745 15.4199C15.7396 15.0079 21.9998 15.0079 21.9998 15.0079C21.9998 15.0079 28.2602 15.0079 29.8252 15.4362ZM25.2122 22.0094L20.0063 25.0078V19.0111L25.2122 22.0094Z" fill="#48660E"/>
</g>
<defs>
<clipPath id="clip0_316_2614">
<rect width="20" height="20" fill="white" transform="translate(12 12)"/>
</clipPath>
</defs>
</svg>
